<?xml version="1.0" encoding="UTF-8" standalone="no"?>
<!DOCTYPE svg PUBLIC "-//W3C//DTD SVG 1.1//EN" "http://www.w3.org/Graphics/SVG/1.1/DTD/svg11.dtd">
<svg version="1.1" xmlns="http://www.w3.org/2000/svg" xmlns:xlink="http://www.w3.org/1999/xlink" preserveAspectRatio="xMidYMid meet" viewBox="0 0 640 640" width="640" height="640"><defs><path d="M307.5 481.67C307.5 481.68 307.5 481.7 307.5 481.72C307.5 481.73 307.5 481.75 307.5 481.77C307.5 481.78 307.5 481.86 307.5 481.87C307.5 488.77 313.1 494.37 320 494.37C326.9 494.37 332.5 488.77 332.5 481.87C332.5 481.85 332.5 481.83 332.5 481.82C332.5 481.8 332.5 481.78 332.5 481.77C332.5 481.75 332.5 481.73 332.5 481.72C332.5 481.7 332.5 481.68 332.5 481.67C332.5 474.76 326.9 469.17 320 469.17C313.1 469.17 307.5 474.76 307.5 481.67Z" id="h11FT5cXJe"></path><path d="M122.5 0C54.95 0 0 54.95 0 122.5C0 162 0 478 0 517.5C0 585.05 54.95 640 122.5 640C142.25 640 300.25 640 320 640C326.9 640 332.5 634.4 332.5 627.5C332.5 617.81 332.5 540.31 332.5 530.63C332.5 523.72 326.9 518.13 320 518.13C313.1 518.13 307.5 523.72 307.5 530.63C307.5 536.25 307.5 564.38 307.5 615C196.5 615 134.83 615 122.5 615C68.74 615 25 571.26 25 517.5C25 478 25 162 25 122.5C25 68.74 68.74 25 122.5 25C162 25 478 25 517.5 25C571.26 25 615 68.74 615 122.5C615 162 615 478 615 517.5C615 571.26 571.26 615 517.5 615C512.17 615 485.5 615 437.5 615L437.5 394.38C480.99 394.38 505.14 394.38 509.98 394.38C516.4 394.38 521.77 389.51 522.41 383.13C523.31 374.2 530.5 302.74 531.4 293.81C531.76 290.29 530.61 286.79 528.24 284.17C525.87 281.55 522.5 280.06 518.96 280.06C513.53 280.06 486.38 280.06 437.5 280.06C437.5 251.92 437.5 236.28 437.5 233.16C437.5 224.67 440.2 221.51 447.48 221.51C454.57 221.51 511.31 221.51 518.4 221.51C525.31 221.51 530.9 215.91 530.9 209.01C530.9 200.3 530.9 130.64 530.9 121.94C530.9 115.03 525.31 109.44 518.4 109.44C509.09 109.44 434.57 109.44 425.26 109.44C372.48 109.44 344.49 132.62 330.3 152.07C310.46 179.26 307.5 211.38 307.5 228.11C307.5 231.61 307.5 249.11 307.5 280.62C270.75 280.62 250.33 280.62 246.25 280.62C239.35 280.62 233.75 286.21 233.75 293.12C233.75 301.99 233.75 373 233.75 381.88C233.75 388.78 239.35 394.38 246.25 394.38C250.33 394.37 270.75 394.37 307.5 394.38C307.5 415.75 307.5 427.62 307.5 430C307.5 436.9 313.1 442.5 320 442.5C326.9 442.5 332.5 436.9 332.5 430C332.5 425.19 332.5 386.69 332.5 381.88C332.5 374.97 326.9 369.38 320 369.38C315.92 369.38 295.5 369.38 258.75 369.38L258.75 305.62C295.5 305.62 315.92 305.62 320 305.62C326.9 305.62 332.5 300.02 332.5 293.12C332.5 286.62 332.5 234.61 332.5 228.11C332.5 199.94 341.54 134.43 425.26 134.43C430.63 134.43 457.52 134.43 505.9 134.43L505.9 196.51C470.85 196.51 451.37 196.51 447.48 196.51C431.34 196.51 412.5 206.11 412.5 233.15C412.5 239.1 412.5 286.62 412.5 292.56C412.5 299.46 418.1 305.06 425 305.06C430.34 305.06 457.06 305.06 505.14 305.06L498.67 369.37C454.47 369.37 429.91 369.37 425 369.37C418.1 369.37 412.5 374.97 412.5 381.87C412.5 406.44 412.5 602.94 412.5 627.5C412.5 634.4 418.1 640 425 640C434.25 640 508.25 640 517.5 640C585.05 640 640 585.05 640 517.5C640 478 640 162 640 122.5C640 54.95 585.05 0 517.5 0C438.5 0 162 0 122.5 0Z" id="d4LdkN0Wo"></path><path d="M60 140.63C60 151.06 60 234.56 60 245C60 251.9 65.6 257.5 72.5 257.5C79.4 257.5 85 251.9 85 245C85 234.56 85 151.06 85 140.63C85 133.72 79.4 128.13 72.5 128.13C65.6 128.13 60 133.72 60 140.63Z" id="ahQleIYUo"></path><path d="M60 299.23C60 299.24 60 299.36 60 299.38C60 306.28 65.6 311.88 72.5 311.88C79.4 311.88 85 306.28 85 299.38C85 299.36 85 299.24 85 299.23C85 292.32 79.4 286.73 72.5 286.73C65.6 286.73 60 292.32 60 299.23Z" id="a39WGJ4YJI"></path></defs><g><g><g><use xlink:href="#h11FT5cXJe" opacity="1" fill="#64ffda" fill-opacity="1"></use><g><use xlink:href="#h11FT5cXJe" opacity="1" fill-opacity="0" stroke="#000000" stroke-width="1" stroke-opacity="0"></use></g></g><g><use xlink:href="#d4LdkN0Wo" opacity="1" fill="#64ffda" fill-opacity="1"></use><g><use xlink:href="#d4LdkN0Wo" opacity="1" fill-opacity="0" stroke="#000000" stroke-width="1" stroke-opacity="0"></use></g></g><g><use xlink:href="#ahQleIYUo" opacity="1" fill="#64ffda" fill-opacity="1"></use><g><use xlink:href="#ahQleIYUo" opacity="1" fill-opacity="0" stroke="#000000" stroke-width="1" stroke-opacity="0"></use></g></g><g><use xlink:href="#a39WGJ4YJI" opacity="1" fill="#64ffda" fill-opacity="1"></use><g><use xlink:href="#a39WGJ4YJI" opacity="1" fill-opacity="0" stroke="#000000" stroke-width="1" stroke-opacity="0"></use></g></g></g></g></svg>