<?xml version="1.0" encoding="UTF-8" standalone="no"?>
<!DOCTYPE svg PUBLIC "-//W3C//DTD SVG 1.1//EN" "http://www.w3.org/Graphics/SVG/1.1/DTD/svg11.dtd">
<svg version="1.1" xmlns="http://www.w3.org/2000/svg" xmlns:xlink="http://www.w3.org/1999/xlink" preserveAspectRatio="xMidYMid meet" viewBox="0 0 640 640" width="640" height="640"><defs><path d="M470 78.75C463.1 78.75 457.5 73.15 457.5 66.25C457.5 59.35 463.1 53.75 470 53.75C476.9 53.75 482.5 59.35 482.5 66.25C482.5 73.15 476.9 78.75 470 78.75Z" id="d629VYyN2c"></path><path d="M107.5 345C107.5 463.31 203.6 557.5 320 557.5C436.66 557.5 532.5 463.14 532.5 345C532.5 227.83 437.17 132.5 320 132.5C202.83 132.5 107.5 227.83 107.5 345ZM282.5 520C282.5 515.02 282.5 475.18 282.5 470.21C282.47 451.98 288.82 449.15 296.09 438.05C298.43 434.48 298.78 429.98 297.05 426.08C295.3 422.2 291.7 419.46 287.49 418.84C237.9 411.44 218.44 385.87 210.84 365.74C200.72 338.91 206.08 305.46 223.86 284.37C226.57 281.19 228.99 275.48 227.05 269.76C223.25 258.3 223.84 240 226.21 232.92C236.98 234.49 247.04 240.6 258.51 247.55C265.14 251.59 269.86 255.31 277.89 253.15C291.91 249.35 306.08 247.32 320 247.14C333.92 247.32 348.09 249.35 362.14 253.15C370.12 255.31 374.99 251.5 381.49 247.55C392.96 240.6 403.03 234.49 413.8 232.92C416.16 239.99 416.75 258.29 412.99 269.66C411.02 275.47 413.43 281.19 416.14 284.37C433.93 305.45 439.28 338.91 429.16 365.74C421.57 385.87 402.1 411.44 352.52 418.83C348.31 419.46 344.7 422.2 342.96 426.08C341.22 429.98 341.57 434.48 343.91 438.05C351.16 449.13 357.53 451.95 357.5 470.22C357.5 475.21 357.5 515.08 357.5 520.07C357.52 522.95 357.86 525.79 358.49 528.53C345.89 531.15 333.01 532.5 320 532.5C306.99 532.5 294.1 531.15 281.51 528.53C282.14 525.77 282.49 522.91 282.5 520ZM382.5 520C382.5 515.02 382.5 475.22 382.5 470.24C382.52 455.9 379.37 446.57 375.46 439.57C413.4 429.32 440.43 406.68 452.55 374.56C465.35 340.63 459.54 300.07 438.24 271.99C442.12 254.9 442.01 227.92 432.71 215.65C428.54 210.16 422.73 207.31 416.31 207.59C396.76 208.49 381.7 218.25 365.29 228.14C350.28 224.34 335.11 222.32 320.15 222.14C320.05 222.13 319.95 222.13 319.85 222.14C304.88 222.32 289.71 224.34 274.71 228.14C258.43 218.33 243.32 208.5 223.69 207.59C217.29 207.29 211.46 210.16 207.29 215.65C198.01 227.9 197.88 254.82 201.77 271.98C180.46 300.06 174.65 340.63 187.45 374.56C199.57 406.68 226.6 429.32 264.54 439.57C261.45 445.09 258.84 452.08 257.89 461.84C242.43 467.24 229.92 463.68 221.42 449.36C211.48 432.65 194.65 419.17 175.35 420.83C168.47 421.43 163.38 427.49 163.97 434.36C164.57 441.24 170.64 446.34 177.5 445.74C186.44 444.97 195.25 454.27 199.93 462.13C213.29 484.64 234.93 492.68 257.5 487.85C257.5 491.06 257.5 516.72 257.5 519.93C257.5 520.56 257.44 521.17 257.36 521.77C183.36 495.51 132.5 424.24 132.5 345C132.5 241.61 216.61 157.5 320 157.5C423.39 157.5 507.5 241.61 507.5 345C507.5 424.24 456.64 495.51 382.64 521.77C382.56 521.19 382.5 520.61 382.5 520Z" id="cdcfjGglo"></path><path d="M62.5 0C28.04 0 0 28.04 0 62.5C0 114 0 526 0 577.5C0 611.96 28.04 640 62.5 640C114 640 526 640 577.5 640C611.96 640 640 611.96 640 577.5C640 526 640 114 640 62.5C640 28.04 611.96 0 577.5 0C474.5 0 114 0 62.5 0ZM615 577.5C615 598.18 598.18 615 577.5 615C526 615 114 615 62.5 615C41.82 615 25 598.18 25 577.5C25 526 25 114 25 62.5C25 41.82 41.82 25 62.5 25C114 25 526 25 577.5 25C598.18 25 615 41.82 615 62.5C615 165.5 615 474.5 615 577.5Z" id="bX6QQEC4p"></path><path d="M420 78.75C426.9 78.75 432.5 73.15 432.5 66.25C432.5 59.35 426.9 53.75 420 53.75C395 53.75 195 53.75 170 53.75C163.1 53.75 157.5 59.35 157.5 66.25C157.5 73.15 163.1 78.75 170 78.75C220 78.75 395 78.75 420 78.75Z" id="ajI9hhmEj"></path></defs><g><g><g><use xlink:href="#d629VYyN2c" opacity="1" fill="#64ffda" fill-opacity="1"></use><g><use xlink:href="#d629VYyN2c" opacity="1" fill-opacity="0" stroke="#000000" stroke-width="1" stroke-opacity="0"></use></g></g><g><use xlink:href="#cdcfjGglo" opacity="1" fill="#64ffda" fill-opacity="1"></use><g><use xlink:href="#cdcfjGglo" opacity="1" fill-opacity="0" stroke="#000000" stroke-width="1" stroke-opacity="0"></use></g></g><g><use xlink:href="#bX6QQEC4p" opacity="1" fill="#64ffda" fill-opacity="1"></use><g><use xlink:href="#bX6QQEC4p" opacity="1" fill-opacity="0" stroke="#000000" stroke-width="1" stroke-opacity="0"></use></g></g><g><use xlink:href="#ajI9hhmEj" opacity="1" fill="#64ffda" fill-opacity="1"></use><g><use xlink:href="#ajI9hhmEj" opacity="1" fill-opacity="0" stroke="#000000" stroke-width="1" stroke-opacity="0"></use></g></g></g></g></svg>