<?xml version="1.0" encoding="UTF-8" standalone="no"?>
<!DOCTYPE svg PUBLIC "-//W3C//DTD SVG 1.1//EN" "http://www.w3.org/Graphics/SVG/1.1/DTD/svg11.dtd">
<svg version="1.1" xmlns="http://www.w3.org/2000/svg" xmlns:xlink="http://www.w3.org/1999/xlink" preserveAspectRatio="xMidYMid meet" viewBox="0 0 640 640" width="640" height="640"><defs><path d="M187.5 0C84.11 0 0 84.11 0 187.5C0 214 0 426 0 452.5C0 555.89 84.11 640 187.5 640C214 640 426 640 452.5 640C555.89 640 640 555.89 640 452.5C640 426 640 214 640 187.5C640 84.11 555.89 0 452.5 0C399.5 0 214 0 187.5 0ZM452.5 615C426 615 214 615 187.5 615C97.9 615 25 542.1 25 452.5C25 426 25 214 25 187.5C25 97.9 97.9 25 187.5 25C214 25 426 25 452.5 25C542.1 25 615 97.9 615 187.5C615 205.17 615 293.5 615 452.5C566.4 560.83 512.23 615 452.5 615Z" id="h1TzEzuzwA"></path><path d="M187.5 55C114.44 55 55 114.44 55 187.5C55 214 55 426 55 452.5C55 525.56 114.44 585 187.5 585C195.13 585 256.13 585 263.75 585C270.65 585 276.25 579.4 276.25 572.5C276.25 565.6 270.65 560 263.75 560C256.13 560 195.13 560 187.5 560C128.23 560 80 511.78 80 452.5C80 426 80 214 80 187.5C80 128.23 128.23 80 187.5 80C214 80 426 80 452.5 80C511.78 80 560 128.23 560 187.5C560 214 560 426 560 452.5C560 511.78 511.78 560 452.5 560C444.96 560 384.63 560 377.08 560C370.18 560 364.58 565.6 364.58 572.5C364.58 579.4 370.18 585 377.08 585C384.63 585 444.96 585 452.5 585C525.56 585 585 525.56 585 452.5C585 426 585 214 585 187.5C585 114.44 525.56 55 452.5 55C399.5 55 214 55 187.5 55Z" id="cnJt5vHJ0"></path><path d="M320 560C316.71 560 313.49 561.34 311.16 563.66C308.84 565.99 307.5 569.21 307.5 572.5C307.5 575.79 308.84 579.01 311.16 581.34C313.49 583.66 316.71 585 320 585C323.29 585 326.51 583.66 328.84 581.34C331.16 579.01 332.5 575.79 332.5 572.5C332.5 569.21 331.16 565.99 328.84 563.66C326.51 561.34 323.29 560 320 560Z" id="j4Oqe07Zik"></path><path d="M202.12 194.06C202.06 194.11 201.62 194.53 201.57 194.58C196.54 199.32 196.31 207.23 201.05 212.25C203.51 214.86 206.83 216.17 210.15 216.17C213.22 216.17 216.31 215.04 218.72 212.77C218.77 212.72 219.16 212.35 219.21 212.31C224.25 207.59 224.51 199.68 219.79 194.64C215.07 189.6 207.16 189.34 202.12 194.06Z" id="a1Xo0FkTz"></path><path d="M240.98 166.63C234.85 169.79 232.44 177.33 235.61 183.47C238.77 189.6 246.31 192.01 252.45 188.84C273.45 178 296.18 172.5 320 172.5C401.33 172.5 467.5 238.67 467.5 320C467.5 401.33 401.33 467.5 320 467.5C238.67 467.5 172.5 401.33 172.5 320C172.5 294.48 179.12 269.33 191.64 247.28C195.05 241.28 192.95 233.65 186.94 230.24C180.94 226.83 173.31 228.93 169.9 234.93C155.25 260.74 147.5 290.16 147.5 320C147.5 415.12 224.88 492.5 320 492.5C415.12 492.5 492.5 415.12 492.5 320C492.5 224.88 415.12 147.5 320 147.5C292.55 147.5 265.22 154.11 240.98 166.63Z" id="cvrrHkxhf"></path><path d="M207.5 320C207.5 382.03 257.97 432.5 320 432.5C382.03 432.5 432.5 382.03 432.5 320C432.5 257.97 382.03 207.5 320 207.5C257.97 207.5 207.5 257.97 207.5 320ZM232.5 320C232.5 271.75 271.75 232.5 320 232.5C368.25 232.5 407.5 271.75 407.5 320C407.5 368.25 368.25 407.5 320 407.5C271.75 407.5 232.5 368.25 232.5 320Z" id="c7YqXNuVHi"></path><path d="M436.56 155.94C436.56 182.13 457.87 203.44 484.06 203.44C510.25 203.44 531.56 182.13 531.56 155.94C531.56 129.75 510.25 108.44 484.06 108.44C457.87 108.44 436.56 129.75 436.56 155.94ZM461.56 155.94C461.56 143.53 471.66 133.44 484.06 133.44C496.47 133.44 506.56 143.53 506.56 155.94C506.56 168.34 496.47 178.44 484.06 178.44C471.66 178.44 461.56 168.34 461.56 155.94Z" id="arnYOUih"></path></defs><g><g><g><use xlink:href="#h1TzEzuzwA" opacity="1" fill="#64ffda" fill-opacity="1"></use><g><use xlink:href="#h1TzEzuzwA" opacity="1" fill-opacity="0" stroke="#000000" stroke-width="1" stroke-opacity="0"></use></g></g><g><use xlink:href="#cnJt5vHJ0" opacity="1" fill="#64ffda" fill-opacity="1"></use><g><use xlink:href="#cnJt5vHJ0" opacity="1" fill-opacity="0" stroke="#000000" stroke-width="1" stroke-opacity="0"></use></g></g><g><use xlink:href="#j4Oqe07Zik" opacity="1" fill="#64ffda" fill-opacity="1"></use><g><use xlink:href="#j4Oqe07Zik" opacity="1" fill-opacity="0" stroke="#000000" stroke-width="1" stroke-opacity="0"></use></g></g><g><use xlink:href="#a1Xo0FkTz" opacity="1" fill="#64ffda" fill-opacity="1"></use><g><use xlink:href="#a1Xo0FkTz" opacity="1" fill-opacity="0" stroke="#000000" stroke-width="1" stroke-opacity="0"></use></g></g><g><use xlink:href="#cvrrHkxhf" opacity="1" fill="#64ffda" fill-opacity="1"></use><g><use xlink:href="#cvrrHkxhf" opacity="1" fill-opacity="0" stroke="#000000" stroke-width="1" stroke-opacity="0"></use></g></g><g><use xlink:href="#c7YqXNuVHi" opacity="1" fill="#64ffda" fill-opacity="1"></use><g><use xlink:href="#c7YqXNuVHi" opacity="1" fill-opacity="0" stroke="#000000" stroke-width="1" stroke-opacity="0"></use></g></g><g><use xlink:href="#arnYOUih" opacity="1" fill="#64ffda" fill-opacity="1"></use><g><use xlink:href="#arnYOUih" opacity="1" fill-opacity="0" stroke="#000000" stroke-width="1" stroke-opacity="0"></use></g></g></g></g></svg>