<?xml version="1.0" encoding="UTF-8" standalone="no"?>
<!DOCTYPE svg PUBLIC "-//W3C//DTD SVG 1.1//EN" "http://www.w3.org/Graphics/SVG/1.1/DTD/svg11.dtd">
<svg version="1.1" xmlns="http://www.w3.org/2000/svg" xmlns:xlink="http://www.w3.org/1999/xlink" preserveAspectRatio="xMidYMid meet" viewBox="0 0 640 640" width="640" height="640"><defs><path d="M178.95 204.4C180.64 205.17 182.41 205.54 184.15 205.54C188.89 205.54 193.42 202.83 195.53 198.24C198.4 191.96 195.65 184.54 189.37 181.67C189.32 181.64 188.9 181.46 188.85 181.43C182.58 178.54 175.16 181.27 172.26 187.54C169.37 193.81 172.11 201.24 178.38 204.13C178.49 204.18 178.9 204.37 178.95 204.4Z" id="c3rIh4b5cw"></path><path d="M622.43 117.89C614.82 121.26 607.08 124.23 599.22 126.79C609.41 113.89 617.32 99.17 622.48 83.25C624.08 78.3 622.46 72.88 618.4 69.63C614.34 66.39 608.69 65.99 604.22 68.64C582.38 81.58 558.92 90.89 534.37 96.37C508.72 71.73 474.11 57.72 438.31 57.72C361.87 57.72 299.69 119.9 299.69 196.33C299.69 201.35 299.97 206.4 300.51 211.45C280.86 209.58 261.4 206.05 242.49 200.91C235.83 199.1 228.96 203.03 227.15 209.69C225.34 216.36 229.27 223.22 235.93 225.03C261.55 231.99 288.08 236.2 314.78 237.55C318.69 237.75 322.45 236.11 324.97 233.12C327.48 230.14 328.46 226.15 327.61 222.33C325.67 213.69 324.69 204.94 324.69 196.33C324.69 133.69 375.66 82.72 438.31 82.72C469.61 82.72 499.8 95.78 521.14 118.55C524.08 121.69 528.42 123.09 532.64 122.27C549.81 118.94 566.52 113.92 582.62 107.29C573.59 119.83 562.06 130.49 548.63 138.53C543.57 141.56 541.32 147.71 543.22 153.29C545.12 158.87 550.67 162.36 556.52 161.67C568.07 160.3 579.5 158.16 590.77 155.27C580.52 165.99 569.28 175.76 557.12 184.51C553.77 186.92 551.83 190.82 551.92 194.95C551.96 196.57 552.26 209.52 552.3 211.14C552.22 381.31 422.69 557.28 205.97 557.28C156.44 557.28 107.92 546.75 63.28 526.53C115.82 522.56 165.13 503.5 206.94 470.81C211.11 467.55 212.77 462.03 211.1 457.01C209.43 452 204.79 448.57 199.5 448.46C157.66 447.59 120.23 423.98 101.1 387.98C102.47 388.02 103.84 388.04 105.22 388.04C117.62 388.04 129.87 386.46 141.62 383.35C147.24 381.86 151.09 376.7 150.91 370.89C150.74 365.09 146.6 360.17 140.9 359.01C94.28 349.56 58.94 311.84 51.32 265.98C65.1 271.02 79.39 273.75 94 274.12C99.56 274.26 104.55 270.71 106.24 265.4C107.91 260.09 105.88 254.31 101.24 251.22C69.6 230.15 50.7 194.84 50.7 156.75C50.7 142.66 53.29 128.8 58.26 115.88C78.63 138.38 101.64 158.29 126.85 175.21C132.59 179.06 140.35 177.53 144.2 171.8C148.05 166.07 146.52 158.31 140.79 154.46C112.26 135.31 86.76 112.07 64.99 85.38C62.41 82.21 58.43 80.51 54.35 80.82C50.27 81.14 46.6 83.43 44.53 86.96C32.21 107.95 25.7 132.09 25.7 156.75C25.7 187.22 35.62 216.24 53.34 239.87C49.97 238.39 46.63 236.75 43.34 234.93C39.46 232.79 34.75 232.86 30.94 235.11C27.13 237.35 24.79 241.45 24.79 245.87C24.79 246.02 24.79 247.25 24.79 247.41C24.79 293.65 47.87 335.67 83.94 361.09C83.87 361.08 83.79 361.06 83.72 361.05C79.39 360.23 74.94 361.75 72.02 365.06C69.11 368.37 68.15 372.97 69.5 377.16C84.16 422.69 120.95 456.7 165.8 468.74C128.69 490.79 86.63 502.32 42.53 502.32C32.96 502.32 23.59 501.79 13.88 500.71C8.12 500.07 2.66 503.49 0.72 508.96C-1.22 514.44 0.87 520.53 5.76 523.66C65.59 562.01 134.82 582.28 205.97 582.28C263.19 582.28 316.75 570.91 365.14 548.49C409.54 527.92 448.77 498.53 481.74 461.13C542.47 392.24 577.3 301.07 577.3 210.99C577.3 210.89 577.3 210.79 577.3 210.69C577.28 209.71 577.09 201.84 577.07 200.85C600.88 182.83 621.32 161.12 637.9 136.25C640.98 131.62 640.64 125.51 637.06 121.26C633.48 117.01 627.52 115.63 622.43 117.89Z" id="eL1DIVb5i"></path><path d="M453.72 365.57C453.72 365.57 453.7 365.6 453.7 365.6C450.15 371.52 452.08 379.18 458 382.73C460 383.94 462.22 384.51 464.4 384.51C468.66 384.51 472.81 382.34 475.16 378.43C478.71 372.51 476.79 364.83 470.87 361.28C464.95 357.73 457.27 359.65 453.72 365.57Z" id="a7vqUyFX2A"></path><path d="M428.88 400.59C407 427.14 381.13 449.04 351.99 465.7C346 469.12 343.92 476.76 347.34 482.75C349.65 486.79 353.87 489.05 358.21 489.05C360.31 489.05 362.44 488.52 364.4 487.4C396.17 469.24 424.36 445.38 448.17 416.49C452.56 411.16 451.81 403.29 446.48 398.89C441.15 394.5 433.27 395.26 428.88 400.59Z" id="bSIsxAiz"></path></defs><g><g><g><use xlink:href="#c3rIh4b5cw" opacity="1" fill="#64ffda" fill-opacity="1"></use><g><use xlink:href="#c3rIh4b5cw" opacity="1" fill-opacity="0" stroke="#000000" stroke-width="1" stroke-opacity="0"></use></g></g><g><use xlink:href="#eL1DIVb5i" opacity="1" fill="#64ffda" fill-opacity="1"></use><g><use xlink:href="#eL1DIVb5i" opacity="1" fill-opacity="0" stroke="#000000" stroke-width="1" stroke-opacity="0"></use></g></g><g><use xlink:href="#a7vqUyFX2A" opacity="1" fill="#64ffda" fill-opacity="1"></use><g><use xlink:href="#a7vqUyFX2A" opacity="1" fill-opacity="0" stroke="#000000" stroke-width="1" stroke-opacity="0"></use></g></g><g><use xlink:href="#bSIsxAiz" opacity="1" fill="#64ffda" fill-opacity="1"></use><g><use xlink:href="#bSIsxAiz" opacity="1" fill-opacity="0" stroke="#000000" stroke-width="1" stroke-opacity="0"></use></g></g></g></g></svg>