<?xml version="1.0" encoding="UTF-8" standalone="no"?>
<!DOCTYPE svg PUBLIC "-//W3C//DTD SVG 1.1//EN" "http://www.w3.org/Graphics/SVG/1.1/DTD/svg11.dtd">
<svg version="1.1" xmlns="http://www.w3.org/2000/svg" xmlns:xlink="http://www.w3.org/1999/xlink" preserveAspectRatio="xMidYMid meet" viewBox="0 0 640 640" width="640" height="640"><defs><path d="M349.08 133.38L349.14 133.39L349.21 133.39L349.27 133.39L349.33 133.39L349.39 133.39L349.45 133.39L349.52 133.4L349.58 133.4L349.64 133.4L349.7 133.41L349.76 133.41L349.83 133.41L349.89 133.42L349.95 133.42L350.01 133.43L350.07 133.43L350.14 133.44L350.2 133.44L350.26 133.45L350.32 133.46L350.38 133.46L350.44 133.47L350.51 133.48L350.57 133.49L350.63 133.49L350.69 133.5L350.75 133.51L350.81 133.52L350.88 133.53L350.94 133.54L351 133.55L351.06 133.56L351.12 133.57L351.18 133.58L351.24 133.59L351.3 133.6L351.37 133.61L351.43 133.63L353.29 134.02L355.08 134.46L356.79 134.93L358.42 135.45L359.99 136L361.48 136.59L362.91 137.21L364.27 137.87L365.56 138.56L366.79 139.28L367.96 140.04L369.08 140.82L370.13 141.63L371.12 142.47L372.07 143.34L372.96 144.24L373.8 145.15L374.59 146.1L375.33 147.06L376.03 148.05L376.68 149.05L377.3 150.08L377.87 151.13L378.4 152.19L378.9 153.27L379.37 154.37L379.8 155.47L380.2 156.6L380.57 157.73L380.91 158.88L381.23 160.04L381.53 161.2L381.8 162.38L382.05 163.56L382.28 164.75L382.5 165.94L382.7 167.13L382.89 168.33L383.07 169.54L383.24 170.74L383.24 170.78L383.25 170.82L383.25 170.87L383.26 170.91L383.26 170.95L383.27 170.99L383.27 171.04L383.28 171.08L383.28 171.12L383.29 171.16L383.29 171.21L383.29 171.25L383.3 171.29L383.3 171.33L383.31 171.38L383.31 171.42L383.31 171.46L383.32 171.51L383.32 171.55L383.32 171.59L383.32 171.63L383.33 171.68L383.33 171.72L383.33 171.76L383.33 171.8L383.34 171.85L383.34 171.89L383.34 171.93L383.34 171.98L383.34 172.02L383.35 172.06L383.35 172.1L383.35 172.15L383.35 172.19L383.35 172.23L383.35 172.28L383.35 172.32L383.35 172.36L383.35 172.4L383.35 172.45L383.44 284.83L383.44 284.84L383.44 284.89L383.44 284.92L383.44 284.94L383.44 284.96L383.44 285L383.44 285.02L383.44 285.06L383.44 285.09L383.43 285.13L383.43 285.14L383.43 285.18L383.43 285.19L383.43 285.58L383.44 285.98L383.45 286.39L383.48 286.82L383.52 287.26L383.57 287.71L383.63 288.17L383.7 288.64L383.78 289.12L383.87 289.61L383.97 290.1L384.07 290.59L384.19 291.09L384.31 291.59L384.44 292.09L384.57 292.59L384.71 293.08L384.86 293.58L385.02 294.07L385.18 294.56L385.34 295.04L385.51 295.51L385.68 295.97L385.86 296.43L386.05 296.87L386.23 297.3L386.42 297.72L386.61 298.12L386.81 298.51L387 298.88L387.2 299.24L387.4 299.57L387.6 299.89L387.81 300.18L388.01 300.45L388.21 300.69L388.41 300.92L388.62 301.11L388.82 301.28L389.02 301.42L389.12 301.37L389.24 301.3L389.35 301.23L389.47 301.16L389.6 301.07L389.73 300.98L389.86 300.88L390 300.78L390.14 300.67L390.28 300.55L390.42 300.43L390.57 300.3L390.72 300.17L390.87 300.04L391.03 299.9L391.18 299.76L391.34 299.61L391.5 299.46L391.66 299.31L391.82 299.15L391.98 299L392.14 298.84L392.3 298.68L392.46 298.52L392.62 298.36L392.78 298.2L392.93 298.03L393.09 297.87L393.25 297.71L393.4 297.55L393.56 297.39L393.71 297.23L393.86 297.08L394 296.92L394.15 296.77L394.29 296.62L394.42 296.47L394.56 296.33L394.69 296.19L394.82 296.05L395.91 294.89L397.73 292.93L399.53 290.95L401.3 288.95L403.04 286.94L404.76 284.9L406.45 282.86L408.11 280.8L409.74 278.72L411.35 276.64L412.94 274.54L414.5 272.43L416.04 270.31L417.55 268.18L419.04 266.04L420.51 263.9L421.95 261.75L423.37 259.59L424.77 257.43L426.14 255.27L427.5 253.1L428.83 250.93L430.14 248.76L431.44 246.59L432.71 244.42L433.96 242.25L435.2 240.08L436.41 237.92L437.61 235.76L438.79 233.61L439.95 231.46L441.1 229.32L442.22 227.18L443.33 225.06L444.43 222.94L445.51 220.83L446.57 218.74L447.62 216.65L448.65 214.58L449.67 212.53L450.68 210.48L451.2 209.43L451.72 208.37L452.23 207.31L452.74 206.25L453.25 205.18L453.75 204.12L454.25 203.05L454.74 201.98L455.23 200.92L455.72 199.85L456.21 198.78L456.69 197.71L457.17 196.64L457.64 195.57L458.11 194.5L458.58 193.43L459.04 192.37L459.5 191.31L459.96 190.24L460.41 189.18L460.86 188.13L461.31 187.07L461.75 186.02L462.19 184.97L462.62 183.93L463.06 182.88L463.48 181.85L463.91 180.81L464.33 179.78L464.75 178.76L465.16 177.74L465.57 176.73L465.98 175.72L466.39 174.72L466.79 173.72L467.18 172.73L467.58 171.74L467.97 170.77L468.35 169.8L468.74 168.84L469.22 167.65L469.73 166.5L470.26 165.37L470.8 164.28L471.37 163.21L471.96 162.18L472.56 161.17L473.19 160.2L473.83 159.26L474.5 158.34L475.18 157.46L475.89 156.61L476.61 155.78L477.36 154.99L478.12 154.23L478.9 153.5L479.71 152.8L480.53 152.13L481.37 151.49L482.23 150.88L483.12 150.3L484.02 149.75L484.94 149.24L485.88 148.75L486.84 148.29L487.82 147.87L488.82 147.47L489.84 147.11L490.87 146.78L491.93 146.47L493.01 146.2L494.1 145.96L495.22 145.75L496.36 145.57L497.51 145.42L498.68 145.3L499.88 145.22L501.09 145.16L502.32 145.14L503.57 145.14L600.83 145.23L601.08 145.23L601.34 145.23L601.59 145.23L601.84 145.23L602.1 145.23L602.36 145.23L602.61 145.23L602.87 145.24L603.13 145.24L603.39 145.25L603.65 145.25L603.91 145.26L604.18 145.26L604.44 145.27L604.7 145.28L604.97 145.29L605.23 145.3L605.5 145.31L605.77 145.32L606.04 145.33L606.31 145.35L606.58 145.37L606.85 145.38L607.12 145.4L607.39 145.42L607.67 145.44L607.94 145.47L608.22 145.49L608.49 145.52L608.77 145.55L609.05 145.58L609.32 145.61L609.6 145.64L609.88 145.68L610.16 145.71L610.44 145.75L610.73 145.79L611.01 145.84L611.29 145.88L611.58 145.93L612.16 146.03L612.76 146.14L613.38 146.26L614 146.38L614.63 146.51L615.26 146.65L615.91 146.8L616.56 146.95L617.22 147.12L617.88 147.3L618.55 147.49L619.22 147.69L619.89 147.9L620.57 148.12L621.25 148.36L621.93 148.61L622.6 148.87L623.28 149.15L623.95 149.44L624.63 149.75L625.3 150.07L625.96 150.41L626.62 150.77L627.27 151.14L627.92 151.54L628.56 151.95L629.19 152.37L629.81 152.82L630.43 153.29L631.03 153.78L631.62 154.29L632.2 154.82L632.77 155.37L633.32 155.94L633.86 156.54L634.38 157.16L634.89 157.8L635.38 158.47L635.85 159.17L636.31 159.88L636.74 160.62L637.14 161.35L637.51 162.1L637.85 162.84L638.16 163.59L638.45 164.34L638.7 165.09L638.93 165.85L639.14 166.61L639.32 167.36L639.48 168.12L639.62 168.88L639.73 169.64L639.82 170.4L639.9 171.15L639.95 171.9L639.98 172.66L640 173.4L640 174.15L639.98 174.89L639.95 175.63L639.9 176.36L639.84 177.09L639.76 177.81L639.68 178.52L639.58 179.23L639.47 179.94L639.35 180.63L639.22 181.32L639.08 182L638.93 182.66L638.78 183.33L638.62 183.98L638.46 184.62L638.29 185.25L638.12 185.86L637.95 186.47L637.77 187.06L637.59 187.65L637.42 188.22L636.78 190.17L636.12 192.1L635.43 194.02L634.72 195.92L633.98 197.81L633.22 199.68L632.44 201.53L631.63 203.37L630.8 205.2L629.96 207.01L629.09 208.81L628.2 210.59L627.3 212.36L626.38 214.12L625.44 215.87L624.49 217.6L623.52 219.32L622.53 221.03L621.53 222.73L620.52 224.42L619.5 226.1L618.46 227.77L617.41 229.43L616.36 231.08L615.29 232.72L614.21 234.36L613.13 235.98L612.04 237.6L610.94 239.21L609.83 240.82L608.72 242.42L607.61 244.01L606.49 245.6L605.37 247.18L604.24 248.75L603.12 250.33L601.99 251.89L600.86 253.46L599.74 255.02L598.61 256.58L596.89 258.96L596.31 259.76L595.73 260.56L595.15 261.36L594.57 262.15L593.99 262.95L593.41 263.74L592.83 264.54L592.24 265.34L591.66 266.13L591.07 266.92L590.48 267.72L589.9 268.51L589.31 269.3L588.72 270.1L588.13 270.89L587.54 271.68L586.95 272.47L586.36 273.26L585.77 274.05L585.18 274.83L584.59 275.62L584 276.41L583.41 277.19L582.82 277.98L582.23 278.76L581.64 279.55L581.05 280.33L580.46 281.11L579.87 281.89L579.29 282.67L578.7 283.45L578.11 284.22L577.52 285L576.94 285.77L576.35 286.55L575.76 287.32L575.18 288.09L574.59 288.86L574.01 289.63L573.43 290.4L572.77 291.26L572.12 292.13L571.46 292.99L570.8 293.86L570.15 294.73L569.49 295.6L568.83 296.47L568.17 297.34L567.51 298.22L566.84 299.09L566.18 299.97L565.52 300.84L564.86 301.72L564.2 302.6L563.54 303.48L562.87 304.36L562.21 305.24L561.55 306.13L560.89 307.01L560.23 307.89L559.57 308.78L558.91 309.66L558.25 310.55L557.59 311.44L556.93 312.32L556.28 313.21L555.62 314.1L554.97 314.99L554.31 315.88L553.66 316.77L553.01 317.66L552.36 318.55L551.71 319.44L551.07 320.33L550.42 321.22L549.78 322.11L549.14 323L548.5 323.89L547.86 324.78L547.22 325.67L546.81 326.26L546.4 326.84L546.01 327.4L545.62 327.96L545.25 328.51L544.89 329.05L544.55 329.58L544.21 330.11L543.89 330.62L543.57 331.13L543.27 331.62L542.99 332.11L542.71 332.59L542.44 333.06L542.19 333.52L541.95 333.97L541.71 334.41L541.49 334.85L541.29 335.28L541.09 335.7L540.9 336.11L540.73 336.51L540.56 336.91L540.41 337.3L540.27 337.68L540.14 338.05L540.02 338.42L539.91 338.77L539.82 339.12L539.73 339.47L539.66 339.8L539.59 340.13L539.54 340.45L539.5 340.77L539.46 341.07L539.44 341.37L539.43 341.67L539.43 341.95L539.44 342.23L539.47 342.51L539.5 342.78L539.54 343.07L539.6 343.35L539.67 343.64L539.75 343.94L539.84 344.24L539.95 344.55L540.07 344.87L540.2 345.18L540.34 345.51L540.49 345.84L540.66 346.17L540.84 346.51L541.03 346.86L541.23 347.21L541.45 347.57L541.67 347.93L541.91 348.3L542.17 348.68L542.43 349.06L542.71 349.45L543.01 349.85L543.31 350.25L543.63 350.66L543.96 351.07L544.3 351.49L544.66 351.92L545.03 352.35L545.41 352.8L545.81 353.24L546.22 353.7L546.64 354.16L547.07 354.63L547.52 355.1L547.99 355.59L548.46 356.08L548.95 356.58L549.45 357.08L549.97 357.59L550.5 358.11L550.5 358.12L550.9 358.51L551.3 358.9L551.71 359.29L552.11 359.68L552.51 360.07L552.91 360.46L553.32 360.85L553.72 361.24L554.13 361.63L554.53 362.02L554.94 362.41L555.34 362.8L555.75 363.19L556.15 363.58L556.56 363.97L556.97 364.36L557.38 364.75L557.78 365.14L558.19 365.53L558.6 365.92L559 366.31L559.41 366.69L559.82 367.08L560.23 367.47L560.63 367.86L561.04 368.25L561.45 368.63L561.85 369.02L562.26 369.4L562.67 369.79L563.07 370.17L563.48 370.56L563.88 370.94L564.29 371.33L564.69 371.71L565.1 372.09L565.5 372.47L565.9 372.86L566.3 373.24L566.7 373.62L567.85 374.7L568.99 375.78L570.13 376.87L571.28 377.95L572.43 379.04L573.58 380.14L574.73 381.23L575.87 382.33L577.02 383.43L578.17 384.53L579.32 385.64L580.47 386.75L581.62 387.86L582.77 388.98L583.91 390.1L585.06 391.22L586.2 392.35L587.34 393.48L588.48 394.62L589.62 395.76L590.75 396.9L591.89 398.05L593.01 399.2L594.14 400.36L595.26 401.52L596.38 402.69L597.5 403.86L598.61 405.04L599.72 406.22L600.82 407.4L601.92 408.6L603.01 409.8L604.1 411L605.19 412.21L606.26 413.43L607.34 414.65L608.4 415.88L609.46 417.11L610.52 418.35L611.56 419.6L612.14 420.3L612.72 421L613.31 421.71L613.89 422.43L614.48 423.16L615.08 423.89L615.67 424.63L616.27 425.38L616.87 426.13L617.46 426.89L618.07 427.66L618.67 428.44L619.27 429.22L619.87 430.01L620.47 430.81L621.08 431.61L621.68 432.42L622.28 433.24L622.88 434.06L623.47 434.9L624.07 435.74L624.66 436.58L625.25 437.43L625.84 438.29L626.43 439.16L627.01 440.03L627.59 440.92L628.17 441.8L628.74 442.7L629.3 443.6L629.87 444.51L630.42 445.42L630.98 446.34L631.52 447.27L632.06 448.21L632.6 449.15L633.13 450.1L633.65 451.06L634.16 452.02L634.67 452.99L635.14 453.93L635.59 454.87L636.01 455.82L636.41 456.78L636.79 457.74L637.14 458.7L637.47 459.67L637.77 460.63L638.05 461.61L638.31 462.58L638.54 463.56L638.75 464.53L638.94 465.51L639.1 466.49L639.24 467.47L639.35 468.44L639.44 469.42L639.51 470.4L639.55 471.37L639.57 472.34L639.56 473.31L639.53 474.28L639.48 475.24L639.4 476.2L639.3 477.15L639.18 478.1L639.03 479.05L638.86 479.99L638.66 480.92L638.44 481.84L638.2 482.76L637.93 483.68L637.64 484.58L637.32 485.48L636.98 486.37L636.62 487.25L636.23 488.12L635.82 488.98L635.39 489.83L634.93 490.67L634.53 491.35L634.12 492.02L633.7 492.68L633.26 493.33L632.81 493.96L632.34 494.57L631.87 495.18L631.38 495.77L630.88 496.34L630.37 496.9L629.85 497.45L629.31 497.98L628.76 498.49L628.21 498.99L627.64 499.48L627.06 499.95L626.47 500.4L625.87 500.84L625.27 501.26L624.65 501.67L624.02 502.06L623.38 502.44L622.74 502.79L622.08 503.14L621.42 503.46L620.75 503.77L620.07 504.06L619.38 504.34L618.68 504.59L617.98 504.84L617.27 505.06L616.55 505.26L615.82 505.45L615.09 505.62L614.36 505.78L613.61 505.91L612.86 506.03L612.1 506.12L611.34 506.2L610.57 506.26L610.55 506.26L610.53 506.27L610.49 506.27L610.47 506.27L610.45 506.27L610.43 506.27L610.38 506.27L610.36 506.28L610.34 506.28L610.3 506.28L610.28 506.28L610.26 506.28L610.21 506.28L610.19 506.28L610.17 506.28L610.13 506.28L610.11 506.29L610.09 506.29L610.05 506.29L610.02 506.29L610 506.29L609.96 506.29L609.94 506.29L609.92 506.29L609.88 506.29L609.85 506.29L609.81 506.29L609.79 506.29L609.75 506.29L609.72 506.29L520.72 506.25L518.86 506.37L517.02 506.45L515.18 506.49L513.36 506.49L511.54 506.45L509.73 506.37L507.93 506.24L506.14 506.07L504.36 505.87L502.59 505.62L500.83 505.33L499.08 505L497.34 504.63L495.6 504.22L493.88 503.77L492.17 503.28L490.46 502.74L488.77 502.17L487.09 501.55L485.41 500.9L483.75 500.2L482.1 499.46L480.45 498.69L478.82 497.87L477.2 497.01L475.58 496.11L473.98 495.17L472.39 494.19L470.81 493.17L469.24 492.1L467.68 491L466.13 489.86L464.59 488.68L463.06 487.45L461.54 486.19L460.04 484.88L458.54 483.54L457.05 482.15L455.58 480.73L454.12 479.26L453.47 478.61L452.83 477.95L452.19 477.29L451.55 476.63L450.91 475.96L450.28 475.3L449.64 474.64L449.01 473.97L448.38 473.3L447.75 472.63L447.12 471.96L446.49 471.29L445.86 470.62L445.24 469.95L444.61 469.28L443.99 468.61L443.37 467.93L442.75 467.26L442.13 466.59L441.51 465.91L440.89 465.24L440.28 464.56L439.67 463.89L439.05 463.21L438.44 462.54L437.83 461.86L437.22 461.19L436.61 460.52L436.01 459.84L435.4 459.17L434.79 458.5L434.19 457.82L433.59 457.15L432.99 456.48L432.39 455.81L431.79 455.14L431.19 454.47L430.59 453.8L430 453.14L429.4 452.47L429.12 452.16L428.84 451.84L428.56 451.53L428.28 451.22L428 450.9L427.72 450.59L427.43 450.27L427.15 449.95L426.87 449.64L426.59 449.32L426.3 449.01L426.02 448.69L425.73 448.37L425.45 448.05L425.16 447.74L424.88 447.42L424.59 447.1L424.31 446.78L424.02 446.47L423.74 446.15L423.45 445.83L423.17 445.51L422.88 445.19L422.59 444.88L422.31 444.56L422.02 444.24L421.74 443.92L421.45 443.61L421.16 443.29L420.88 442.97L420.59 442.66L420.3 442.34L420.02 442.02L419.73 441.71L419.44 441.39L419.16 441.08L418.87 440.76L418.59 440.45L418.3 440.14L418.01 439.82L417.73 439.51L417.44 439.2L417.15 438.89L416.86 438.58L416.57 438.26L416.27 437.94L415.97 437.63L415.66 437.31L415.35 436.99L415.04 436.67L414.73 436.35L414.41 436.02L414.09 435.7L413.77 435.38L413.45 435.06L413.12 434.74L412.79 434.42L412.45 434.1L412.12 433.78L411.78 433.46L411.43 433.15L411.09 432.83L410.74 432.52L410.39 432.21L410.03 431.9L409.68 431.59L409.32 431.29L408.95 430.98L408.59 430.68L408.22 430.38L407.85 430.09L407.47 429.8L407.09 429.51L406.71 429.22L406.33 428.94L405.95 428.67L405.56 428.39L405.17 428.12L404.77 427.86L404.38 427.6L404.16 427.46L403.94 427.32L403.73 427.19L403.51 427.06L403.3 426.94L403.09 426.82L402.88 426.7L402.67 426.59L402.47 426.48L402.27 426.37L402.06 426.27L401.86 426.17L401.67 426.08L401.47 425.99L401.28 425.91L401.09 425.82L400.9 425.75L400.71 425.67L400.53 425.61L400.34 425.54L400.17 425.48L399.99 425.43L399.82 425.37L399.65 425.33L399.48 425.28L399.32 425.24L399.16 425.21L399 425.18L398.84 425.16L398.69 425.13L398.55 425.12L398.4 425.11L398.26 425.1L398.12 425.1L397.99 425.1L397.86 425.1L397.74 425.12L397.62 425.13L397.5 425.15L397.39 425.18L397.28 425.21L397.18 425.24L397.07 425.28L396.96 425.33L396.85 425.38L396.74 425.44L396.63 425.5L396.52 425.57L396.4 425.64L396.29 425.72L396.17 425.8L396.06 425.89L395.94 425.99L395.82 426.09L395.7 426.19L395.58 426.3L395.46 426.42L395.34 426.54L395.22 426.66L395.1 426.79L394.98 426.92L394.86 427.06L394.74 427.2L394.62 427.35L394.49 427.5L394.37 427.66L394.25 427.82L394.13 427.98L394.01 428.15L393.88 428.33L393.76 428.5L393.64 428.68L393.52 428.87L393.4 429.06L393.28 429.25L393.16 429.45L393.04 429.65L392.92 429.85L392.8 430.06L392.69 430.27L392.28 431.04L391.88 431.81L391.5 432.58L391.13 433.36L390.78 434.15L390.44 434.95L390.11 435.75L389.8 436.56L389.5 437.37L389.21 438.19L388.93 439.02L388.66 439.85L388.41 440.69L388.17 441.54L387.93 442.4L387.71 443.26L387.5 444.14L387.3 445.02L387.11 445.9L386.93 446.8L386.75 447.7L386.59 448.61L386.43 449.53L386.28 450.46L386.15 451.39L386.01 452.34L385.89 453.29L385.77 454.25L385.66 455.22L385.56 456.2L385.46 457.19L385.37 458.19L385.28 459.2L385.2 460.22L385.13 461.24L385.06 462.28L384.99 463.33L384.93 464.38L384.87 465.45L384.82 466.53L384.7 468.54L384.55 470.5L384.36 472.4L384.13 474.23L383.86 476.01L383.55 477.74L383.2 479.4L382.8 481.01L382.36 482.56L381.88 484.06L381.35 485.5L380.78 486.89L380.16 488.23L379.5 489.51L378.79 490.74L378.04 491.92L377.23 493.05L376.38 494.13L375.48 495.15L374.53 496.13L373.53 497.06L372.47 497.94L371.37 498.78L370.21 499.56L369.01 500.3L367.74 501L366.43 501.65L365.06 502.25L363.64 502.81L362.16 503.33L360.62 503.8L359.03 504.23L357.37 504.62L355.67 504.97L353.9 505.28L352.07 505.55L350.18 505.78L348.24 505.97L346.23 506.12L344.16 506.23L343.76 506.25L343.36 506.27L342.96 506.29L342.56 506.3L342.16 506.32L341.77 506.34L341.37 506.35L340.97 506.37L340.57 506.38L340.18 506.4L339.78 506.41L339.39 506.43L338.99 506.44L338.59 506.45L338.2 506.46L337.8 506.48L337.41 506.49L337.01 506.5L336.62 506.51L336.23 506.52L335.83 506.53L335.44 506.54L335.05 506.54L334.65 506.55L334.26 506.56L333.87 506.57L333.48 506.57L333.09 506.58L332.7 506.58L332.31 506.59L331.92 506.59L331.53 506.6L331.14 506.6L330.75 506.6L330.36 506.61L329.97 506.61L329.58 506.61L329.19 506.61L328.8 506.61L328.42 506.61L325.02 506.59L321.65 506.54L318.3 506.45L314.98 506.32L311.68 506.16L308.4 505.95L305.14 505.72L301.91 505.44L298.7 505.13L295.51 504.78L292.34 504.4L289.19 503.97L286.06 503.52L282.96 503.02L279.88 502.49L276.82 501.92L273.77 501.31L270.75 500.67L267.75 499.98L264.77 499.27L261.81 498.51L258.87 497.72L255.95 496.89L253.05 496.02L250.17 495.11L247.31 494.17L244.46 493.19L241.64 492.17L238.83 491.12L236.05 490.03L233.28 488.9L230.53 487.73L227.79 486.52L225.08 485.28L222.38 484L219.7 482.68L217.04 481.32L214.4 479.93L211.77 478.5L209.16 477.03L206.69 475.59L204.23 474.13L201.8 472.64L199.37 471.12L196.97 469.56L194.57 467.98L192.19 466.36L189.83 464.71L187.48 463.03L185.14 461.32L182.81 459.57L180.5 457.79L178.2 455.97L175.91 454.13L173.63 452.24L171.36 450.32L169.1 448.37L166.85 446.38L164.61 444.36L162.38 442.29L160.16 440.2L157.94 438.06L155.74 435.89L153.54 433.67L151.34 431.43L149.16 429.14L146.98 426.81L144.81 424.44L142.64 422.04L140.48 419.59L138.32 417.1L136.16 414.57L134.01 412L131.87 409.39L129.72 406.74L127.58 404.05L125.45 401.31L123.31 398.53L121.17 395.7L119.04 392.83L116.02 388.71L113.02 384.56L110.03 380.37L107.06 376.14L104.11 371.88L101.17 367.58L98.24 363.24L95.33 358.86L92.43 354.44L89.54 349.97L86.66 345.46L83.8 340.9L80.94 336.29L78.09 331.63L75.24 326.92L72.41 322.16L69.58 317.34L66.75 312.47L63.93 307.54L61.11 302.55L58.3 297.51L55.48 292.4L52.67 287.22L49.86 281.99L47.05 276.69L44.23 271.32L41.42 265.88L38.6 260.37L35.77 254.79L32.95 249.14L30.11 243.41L27.27 237.61L24.43 231.73L21.57 225.77L18.71 219.74L15.84 213.62L12.95 207.42L10.06 201.13L7.16 194.76L4.24 188.3L3.84 187.39L3.46 186.49L3.1 185.6L2.76 184.71L2.44 183.83L2.14 182.96L1.86 182.1L1.6 181.24L1.36 180.4L1.13 179.56L0.93 178.72L0.75 177.9L0.59 177.08L0.45 176.27L0.32 175.46L0.22 174.67L0.14 173.88L0.07 173.1L0.03 172.33L0.01 171.56L0 170.8L0.02 170.06L0.05 169.31L0.11 168.58L0.18 167.85L0.28 167.14L0.39 166.43L0.53 165.72L0.68 165.03L0.86 164.34L1.05 163.66L1.26 162.99L1.5 162.33L1.75 161.68L2.02 161.03L2.31 160.39L2.63 159.76L2.96 159.14L3.31 158.53L3.68 157.92L4.07 157.33L4.48 156.75L4.9 156.19L5.33 155.64L5.78 155.1L6.25 154.58L6.74 154.08L7.23 153.58L7.75 153.11L8.28 152.64L8.82 152.19L9.39 151.76L9.96 151.34L10.55 150.94L11.16 150.55L11.78 150.17L12.42 149.81L13.08 149.46L13.75 149.13L14.43 148.81L15.13 148.51L15.85 148.22L16.58 147.94L17.32 147.68L18.08 147.44L18.86 147.21L19.65 146.99L20.46 146.79L21.28 146.6L22.11 146.43L22.97 146.28L23.83 146.13L24.71 146.01L25.61 145.89L26.52 145.79L27.45 145.71L28.39 145.64L29.35 145.59L30.32 145.55L31.31 145.52L33.41 145.48L35.53 145.45L37.64 145.41L39.76 145.38L41.88 145.34L44 145.31L46.13 145.29L48.26 145.26L50.4 145.24L52.54 145.21L54.68 145.19L56.83 145.18L58.98 145.16L61.14 145.15L63.3 145.13L65.47 145.12L67.64 145.12L69.82 145.11L72.01 145.11L74.19 145.1L76.39 145.1L78.59 145.11L80.8 145.11L83.01 145.12L85.23 145.12L87.45 145.13L89.69 145.15L91.92 145.16L94.17 145.18L96.42 145.19L98.68 145.21L100.95 145.24L103.23 145.26L105.51 145.29L107.8 145.31L110.1 145.34L112.41 145.38L114.72 145.41L117.05 145.45L119.38 145.48L120.6 145.52L121.81 145.59L123 145.69L124.18 145.82L125.34 145.99L126.49 146.2L127.62 146.43L128.74 146.7L129.85 147L130.94 147.33L132.01 147.7L133.06 148.09L134.11 148.52L135.13 148.98L136.14 149.47L137.13 150L138.1 150.55L139.06 151.14L140 151.76L140.92 152.41L141.82 153.08L142.71 153.79L143.57 154.53L144.42 155.3L145.25 156.1L146.06 156.93L146.85 157.79L147.62 158.68L148.38 159.6L149.11 160.55L149.82 161.53L150.51 162.53L151.18 163.57L151.83 164.63L152.46 165.72L153.07 166.84L153.65 167.99L154.22 169.17L154.76 170.37L155.28 171.6L156.52 174.63L157.77 177.64L159.03 180.63L160.3 183.6L161.58 186.55L162.87 189.48L164.17 192.39L165.47 195.29L166.79 198.16L168.12 201.02L169.46 203.86L170.81 206.68L172.17 209.48L173.54 212.27L174.93 215.03L176.32 217.78L177.72 220.52L179.14 223.23L180.56 225.93L182 228.62L183.45 231.29L184.91 233.94L186.38 236.57L187.87 239.19L189.36 241.8L190.87 244.39L192.39 246.96L193.92 249.52L195.47 252.06L197.02 254.59L198.59 257.11L200.17 259.61L201.76 262.1L203.37 264.57L204.99 267.03L206.62 269.47L208.27 271.91L209.92 274.33L211.6 276.73L213.28 279.13L213.7 279.73L214.13 280.33L214.56 280.92L214.98 281.52L215.41 282.12L215.84 282.72L216.27 283.32L216.71 283.92L217.14 284.51L217.58 285.11L218.02 285.7L218.46 286.29L218.91 286.87L219.35 287.46L219.8 288.04L220.26 288.62L220.72 289.19L221.18 289.76L221.64 290.32L222.11 290.88L222.58 291.44L223.06 291.99L223.54 292.53L224.02 293.07L224.51 293.6L225.01 294.13L225.51 294.65L226.01 295.16L226.52 295.66L227.03 296.16L227.55 296.65L228.08 297.13L228.61 297.6L229.15 298.07L229.69 298.52L230.24 298.96L230.8 299.4L231.37 299.82L231.94 300.24L232.51 300.64L232.61 300.7L232.7 300.76L232.79 300.83L232.88 300.88L232.97 300.94L233.05 301L233.14 301.05L233.22 301.11L233.31 301.16L233.39 301.21L233.47 301.26L233.55 301.31L233.63 301.35L233.7 301.4L233.78 301.44L233.85 301.49L233.93 301.53L234 301.57L234.07 301.61L234.14 301.64L234.21 301.68L234.27 301.72L234.34 301.75L234.4 301.78L234.46 301.82L234.53 301.85L234.59 301.88L234.64 301.91L234.7 301.94L234.76 301.96L234.81 301.99L234.87 302.01L234.92 302.04L234.97 302.06L235.02 302.08L235.07 302.11L235.12 302.13L235.17 302.15L235.21 302.16L235.26 302.18L235.28 302.14L235.31 302.1L235.34 302.06L235.37 302.02L235.4 301.97L235.43 301.93L235.46 301.88L235.49 301.83L235.53 301.78L235.56 301.73L235.59 301.67L235.63 301.62L235.66 301.56L235.69 301.5L235.73 301.44L235.77 301.38L235.8 301.32L235.84 301.25L235.87 301.19L235.91 301.12L235.95 301.05L235.99 300.98L236.03 300.91L236.07 300.83L236.11 300.76L236.15 300.68L236.19 300.6L236.23 300.52L236.27 300.43L236.31 300.35L236.35 300.26L236.39 300.17L236.43 300.08L236.48 299.99L236.52 299.89L236.56 299.79L236.61 299.7L236.65 299.59L236.7 299.49L236.74 299.39L236.9 299L237.06 298.62L237.21 298.22L237.36 297.83L237.51 297.43L237.65 297.03L237.79 296.62L237.93 296.2L238.07 295.79L238.2 295.36L238.33 294.94L238.46 294.51L238.58 294.07L238.71 293.63L238.82 293.18L238.94 292.73L239.05 292.27L239.16 291.81L239.27 291.34L239.38 290.87L239.48 290.39L239.58 289.91L239.68 289.42L239.77 288.92L239.86 288.42L239.95 287.91L240.04 287.4L240.12 286.88L240.2 286.35L240.28 285.82L240.36 285.28L240.43 284.74L240.5 284.19L240.57 283.63L240.64 283.06L240.7 282.49L240.77 281.91L240.83 281.33L240.88 280.73L240.94 280.13L241.13 277.89L241.3 275.68L241.47 273.47L241.62 271.29L241.76 269.13L241.89 266.98L242.01 264.85L242.12 262.74L242.22 260.65L242.3 258.57L242.38 256.51L242.44 254.46L242.49 252.43L242.53 250.42L242.56 248.42L242.58 246.43L242.59 244.46L242.58 242.5L242.56 240.56L242.54 238.63L242.5 236.71L242.45 234.8L242.39 232.91L242.31 231.03L242.23 229.16L242.13 227.3L242.02 225.45L241.91 223.61L241.78 221.78L241.63 219.97L241.48 218.16L241.32 216.36L241.14 214.57L240.95 212.78L240.76 211.01L240.55 209.24L240.32 207.48L240.09 205.73L239.85 203.99L239.59 202.25L239.45 201.36L239.3 200.5L239.13 199.66L238.94 198.84L238.74 198.04L238.53 197.26L238.3 196.51L238.05 195.77L237.79 195.05L237.51 194.35L237.21 193.68L236.9 193.02L236.58 192.38L236.23 191.76L235.87 191.16L235.49 190.58L235.1 190.02L234.69 189.48L234.26 188.95L233.82 188.45L233.36 187.96L232.88 187.49L232.38 187.04L231.86 186.61L231.33 186.19L230.78 185.79L230.21 185.42L229.62 185.05L229.02 184.71L228.39 184.38L227.75 184.07L227.09 183.78L226.41 183.5L225.71 183.24L224.99 182.99L224.25 182.76L223.49 182.55L222.71 182.36L221.92 182.18L221.1 182.01L220.85 181.96L220.58 181.91L220.29 181.85L219.98 181.79L219.65 181.72L219.3 181.64L218.94 181.56L218.55 181.46L218.16 181.36L217.75 181.24L217.33 181.12L216.9 180.99L216.46 180.84L216.01 180.68L215.55 180.51L215.08 180.33L214.62 180.13L214.14 179.92L213.67 179.7L213.19 179.46L212.72 179.2L212.24 178.93L211.77 178.64L211.3 178.33L210.84 178.01L210.38 177.66L209.92 177.3L209.48 176.91L209.05 176.51L208.62 176.09L208.21 175.64L207.81 175.17L207.43 174.68L207.06 174.17L206.71 173.63L206.37 173.07L206.06 172.48L205.76 171.87L205.49 171.23L205.23 170.56L205.01 169.9L204.83 169.23L204.68 168.58L204.55 167.93L204.46 167.29L204.4 166.66L204.36 166.03L204.36 165.42L204.37 164.81L204.41 164.21L204.48 163.62L204.56 163.03L204.67 162.46L204.79 161.9L204.93 161.34L205.09 160.8L205.26 160.27L205.45 159.75L205.65 159.24L205.86 158.74L206.09 158.25L206.32 157.77L206.56 157.31L206.8 156.86L207.05 156.42L207.31 155.99L207.57 155.58L207.83 155.18L208.09 154.8L208.34 154.43L208.6 154.07L208.86 153.73L209.1 153.4L209.35 153.09L209.58 152.79L209.81 152.51L210.03 152.25L210.24 152L210.43 151.77L210.62 151.55L211.23 150.84L211.84 150.14L212.47 149.44L213.1 148.75L213.75 148.06L214.41 147.37L215.07 146.7L215.75 146.03L216.45 145.37L217.15 144.73L217.87 144.09L218.61 143.46L219.36 142.84L220.12 142.24L220.91 141.65L221.71 141.07L222.52 140.51L223.36 139.97L224.22 139.44L225.09 138.92L225.99 138.43L226.9 137.95L227.84 137.49L228.81 137.06L229.79 136.64L230.8 136.25L231.83 135.87L232.89 135.52L233.97 135.2L235.09 134.89L236.22 134.62L237.39 134.37L238.58 134.14L239.8 133.95L241.06 133.78L242.34 133.64L243.65 133.53L245 133.45L246.38 133.4L247.79 133.38L348.96 133.38L349.02 133.38L349.08 133.38ZM247.49 158.89L247.19 158.89L246.89 158.89L246.6 158.9L246.32 158.91L246.03 158.92L245.75 158.94L245.48 158.95L245.21 158.97L244.94 158.99L244.67 159.02L244.41 159.04L244.15 159.07L243.9 159.1L243.65 159.13L243.4 159.17L243.15 159.21L242.91 159.25L242.67 159.29L242.44 159.34L242.2 159.38L241.97 159.43L241.74 159.49L241.52 159.54L241.29 159.6L241.07 159.66L240.85 159.73L240.64 159.79L240.42 159.86L240.21 159.93L240 160.01L239.79 160.08L239.58 160.16L239.38 160.25L239.18 160.33L238.97 160.42L238.77 160.51L238.58 160.61L238.38 160.7L238.18 160.8L239.27 161.31L240.34 161.85L241.39 162.41L242.42 162.99L243.43 163.59L244.41 164.22L245.38 164.87L246.32 165.55L247.25 166.24L248.15 166.96L249.03 167.7L249.89 168.47L250.73 169.26L251.55 170.06L252.34 170.9L253.12 171.75L253.87 172.62L254.6 173.52L255.31 174.44L255.99 175.38L256.65 176.34L257.29 177.32L257.91 178.33L258.5 179.35L259.08 180.4L259.62 181.46L260.15 182.55L260.65 183.65L261.13 184.78L261.58 185.93L262.02 187.1L262.42 188.28L262.81 189.49L263.17 190.72L263.5 191.96L263.81 193.23L264.1 194.51L264.36 195.82L264.6 197.14L264.81 198.48L265.09 200.37L265.35 202.27L265.61 204.17L265.85 206.08L266.08 207.99L266.29 209.91L266.5 211.84L266.69 213.78L266.87 215.73L267.04 217.69L267.19 219.65L267.33 221.63L267.46 223.61L267.58 225.61L267.69 227.62L267.78 229.63L267.86 231.66L267.93 233.7L267.98 235.76L268.03 237.82L268.06 239.9L268.08 241.99L268.09 244.1L268.08 246.22L268.06 248.36L268.03 250.51L267.99 252.67L267.94 254.85L267.87 257.05L267.79 259.26L267.7 261.49L267.6 263.73L267.49 266L267.36 268.28L267.22 270.58L267.07 272.89L266.91 275.23L266.73 277.58L266.54 279.96L266.34 282.35L266.27 283.16L266.19 283.96L266.11 284.75L266.02 285.53L265.94 286.3L265.84 287.07L265.75 287.83L265.65 288.58L265.54 289.32L265.43 290.06L265.32 290.79L265.2 291.51L265.08 292.22L264.96 292.93L264.83 293.63L264.7 294.33L264.56 295.01L264.42 295.69L264.28 296.37L264.13 297.04L263.98 297.7L263.82 298.36L263.66 299.01L263.49 299.65L263.32 300.29L263.15 300.93L262.97 301.56L262.78 302.18L262.6 302.8L262.4 303.42L262.21 304.02L262.01 304.63L261.8 305.23L261.59 305.83L261.37 306.42L261.15 307L260.93 307.59L260.7 308.17L260.47 308.74L260.23 309.31L259.85 310.18L259.46 311.02L259.07 311.84L258.67 312.63L258.26 313.39L257.84 314.13L257.42 314.84L256.99 315.53L256.55 316.19L256.11 316.83L255.67 317.44L255.22 318.03L254.76 318.6L254.31 319.15L253.85 319.68L253.38 320.18L252.92 320.66L252.45 321.12L251.98 321.57L251.51 321.99L251.04 322.39L250.57 322.78L250.1 323.14L249.63 323.49L249.16 323.82L248.69 324.14L248.23 324.43L247.77 324.72L247.3 324.98L246.85 325.23L246.39 325.47L245.94 325.69L245.5 325.9L245.06 326.09L244.62 326.27L244.19 326.44L243.77 326.6L243.35 326.74L242.94 326.87L242.54 327L242.13 327.11L241.71 327.22L241.28 327.32L240.84 327.42L240.39 327.51L239.93 327.59L239.45 327.67L238.96 327.74L238.47 327.79L237.96 327.84L237.44 327.88L236.91 327.9L236.36 327.91L235.81 327.92L235.25 327.9L234.68 327.88L234.09 327.84L233.5 327.79L232.9 327.72L232.28 327.63L231.66 327.53L231.03 327.41L230.38 327.27L229.73 327.12L229.07 326.95L228.4 326.75L227.72 326.54L227.03 326.31L226.34 326.05L225.63 325.78L224.91 325.48L224.19 325.16L223.46 324.81L222.72 324.44L221.97 324.05L221.22 323.63L220.45 323.18L219.68 322.71L218.9 322.21L218.11 321.68L217.26 321.08L216.41 320.48L215.58 319.86L214.77 319.23L213.96 318.59L213.17 317.94L212.4 317.28L211.63 316.62L210.88 315.94L210.14 315.26L209.41 314.57L208.69 313.88L207.98 313.18L207.29 312.47L206.6 311.76L205.93 311.05L205.27 310.33L204.61 309.6L203.97 308.88L203.34 308.15L202.72 307.42L202.1 306.69L201.5 305.96L200.9 305.23L200.32 304.49L199.74 303.76L199.17 303.03L198.61 302.3L198.06 301.58L197.52 300.85L196.98 300.13L196.45 299.42L195.93 298.7L195.42 297.99L194.91 297.29L194.41 296.59L193.92 295.9L193.43 295.22L192.95 294.54L192.48 293.87L190.71 291.35L188.95 288.82L187.21 286.28L185.48 283.73L183.77 281.16L182.07 278.58L180.38 275.98L178.71 273.37L177.05 270.75L175.4 268.11L173.77 265.45L172.15 262.78L170.54 260.1L168.94 257.4L167.36 254.69L165.79 251.96L164.24 249.21L162.69 246.45L161.16 243.67L159.64 240.88L158.14 238.07L156.64 235.24L155.16 232.39L153.69 229.53L152.23 226.65L150.78 223.75L149.34 220.84L147.92 217.9L146.5 214.95L145.1 211.98L143.71 209L142.33 205.99L140.96 202.96L139.6 199.92L138.25 196.85L136.92 193.77L135.59 190.66L134.27 187.54L132.97 184.39L131.67 181.23L131.39 180.57L131.12 179.95L130.83 179.35L130.54 178.78L130.25 178.23L129.96 177.71L129.66 177.21L129.36 176.74L129.05 176.3L128.75 175.87L128.43 175.47L128.12 175.09L127.81 174.74L127.49 174.4L127.17 174.08L126.85 173.79L126.52 173.51L126.2 173.25L125.87 173.01L125.55 172.78L125.22 172.57L124.89 172.38L124.56 172.21L124.23 172.04L123.89 171.9L123.56 171.76L123.23 171.64L122.9 171.53L122.57 171.44L122.24 171.35L121.91 171.28L121.58 171.21L121.25 171.16L120.92 171.11L120.59 171.07L120.27 171.04L119.94 171.02L119.62 171L119.3 170.99L118.98 170.98L116.67 170.94L114.37 170.9L112.08 170.87L109.79 170.84L107.51 170.81L105.24 170.78L102.98 170.76L100.73 170.73L98.48 170.71L96.24 170.69L94.01 170.67L91.79 170.66L89.57 170.64L87.36 170.63L85.15 170.62L82.96 170.61L80.77 170.61L78.58 170.6L76.4 170.6L74.23 170.6L72.06 170.6L69.9 170.61L67.75 170.61L65.6 170.62L63.45 170.63L61.31 170.64L59.17 170.66L57.04 170.67L54.92 170.69L52.79 170.71L50.68 170.73L48.56 170.76L46.45 170.78L44.35 170.81L42.24 170.84L40.14 170.87L38.05 170.9L35.95 170.94L33.86 170.98L31.78 171.02L31.53 171.02L31.29 171.03L31.05 171.04L30.82 171.05L30.59 171.06L30.37 171.07L30.15 171.08L29.94 171.09L29.74 171.11L29.53 171.12L29.34 171.14L29.15 171.16L28.96 171.17L28.78 171.19L28.6 171.21L28.43 171.23L28.26 171.25L28.09 171.28L27.94 171.3L27.78 171.32L27.63 171.34L27.48 171.37L27.34 171.39L27.21 171.42L27.07 171.44L26.94 171.47L26.82 171.49L26.7 171.52L26.58 171.54L26.47 171.57L26.36 171.59L26.26 171.62L26.16 171.64L26.06 171.67L25.97 171.7L25.88 171.72L25.79 171.75L25.71 171.77L25.63 171.8L25.56 171.82L25.57 171.9L25.58 171.98L25.59 172.07L25.6 172.16L25.62 172.25L25.64 172.34L25.65 172.44L25.67 172.55L25.69 172.65L25.72 172.76L25.74 172.88L25.77 172.99L25.8 173.11L25.83 173.24L25.86 173.37L25.89 173.5L25.93 173.64L25.97 173.77L26.01 173.92L26.05 174.07L26.1 174.22L26.15 174.37L26.2 174.53L26.25 174.69L26.31 174.86L26.36 175.03L26.42 175.2L26.49 175.38L26.55 175.57L26.62 175.75L26.7 175.94L26.77 176.14L26.85 176.34L26.93 176.54L27.02 176.75L27.11 176.96L27.2 177.17L27.29 177.4L27.39 177.62L27.49 177.85L30.35 184.18L33.2 190.42L36.03 196.58L38.86 202.66L41.67 208.65L44.47 214.57L47.27 220.4L50.05 226.16L52.83 231.84L55.6 237.44L58.37 242.98L61.13 248.44L63.89 253.82L66.64 259.14L69.39 264.4L72.14 269.58L74.88 274.7L77.63 279.76L80.38 284.75L83.13 289.68L85.88 294.56L88.63 299.37L91.39 304.13L94.15 308.83L96.91 313.48L99.69 318.08L102.47 322.62L105.25 327.12L108.05 331.57L110.85 335.97L113.66 340.32L116.49 344.63L119.32 348.9L122.17 353.13L125.03 357.31L127.91 361.46L130.79 365.57L133.7 369.65L136.62 373.69L139.56 377.7L141.53 380.34L143.5 382.95L145.47 385.52L147.44 388.04L149.41 390.53L151.38 392.98L153.36 395.38L155.33 397.75L157.31 400.08L159.29 402.37L161.28 404.62L163.27 406.84L165.26 409.01L167.26 411.16L169.26 413.26L171.26 415.33L173.27 417.36L175.29 419.35L177.31 421.31L179.34 423.24L181.38 425.13L183.42 426.98L185.47 428.81L187.53 430.59L189.6 432.35L191.67 434.07L193.76 435.76L195.85 437.42L197.95 439.04L200.06 440.63L202.19 442.2L204.32 443.73L206.47 445.23L208.62 446.7L210.79 448.14L212.97 449.55L215.16 450.93L217.37 452.28L219.59 453.6L221.82 454.9L224.4 456.35L227.01 457.76L229.63 459.13L232.27 460.45L234.94 461.74L237.63 462.98L240.33 464.18L243.06 465.34L245.81 466.46L248.59 467.54L251.38 468.57L254.2 469.56L257.04 470.52L259.9 471.43L262.79 472.3L265.69 473.13L268.62 473.91L271.58 474.66L274.56 475.36L277.56 476.03L280.59 476.65L283.64 477.23L286.72 477.77L289.82 478.28L292.94 478.74L296.09 479.15L299.27 479.53L302.47 479.87L305.7 480.17L308.96 480.42L312.24 480.64L315.54 480.81L318.88 480.95L322.24 481.04L325.63 481.1L329.04 481.11L332.49 481.09L335.96 481.02L339.46 480.91L342.98 480.77L343.71 480.73L344.41 480.69L345.08 480.65L345.73 480.6L346.35 480.56L346.96 480.5L347.53 480.45L348.09 480.39L348.63 480.33L349.14 480.27L349.63 480.2L350.1 480.13L350.55 480.06L350.98 479.99L351.39 479.92L351.78 479.84L352.15 479.77L352.51 479.69L352.84 479.61L353.16 479.53L353.47 479.45L353.75 479.37L354.02 479.29L354.28 479.21L354.52 479.13L354.74 479.05L354.96 478.97L355.15 478.89L355.34 478.81L355.51 478.73L355.67 478.65L355.82 478.57L355.96 478.5L356.08 478.42L356.2 478.35L356.3 478.28L356.4 478.21L356.49 478.14L356.57 478.07L356.64 478.01L356.69 477.96L356.74 477.9L356.8 477.83L356.86 477.76L356.93 477.67L356.99 477.58L357.06 477.47L357.13 477.36L357.21 477.23L357.28 477.1L357.36 476.95L357.44 476.79L357.52 476.62L357.6 476.43L357.68 476.23L357.76 476.01L357.84 475.78L357.92 475.54L358 475.28L358.08 475L358.16 474.71L358.24 474.4L358.32 474.07L358.4 473.73L358.48 473.36L358.55 472.98L358.63 472.57L358.7 472.15L358.77 471.71L358.84 471.24L358.9 470.76L358.97 470.25L359.03 469.72L359.08 469.16L359.14 468.59L359.19 467.99L359.24 467.36L359.28 466.71L359.32 466.04L359.35 465.34L359.41 464.17L359.47 462.99L359.54 461.82L359.62 460.64L359.7 459.46L359.78 458.28L359.88 457.09L359.98 455.9L360.09 454.71L360.21 453.52L360.34 452.33L360.47 451.14L360.62 449.94L360.78 448.75L360.95 447.55L361.13 446.35L361.32 445.16L361.53 443.96L361.75 442.76L361.98 441.57L362.23 440.37L362.49 439.18L362.77 437.98L363.07 436.79L363.38 435.6L363.7 434.41L364.05 433.22L364.41 432.03L364.79 430.85L365.19 429.67L365.61 428.49L366.05 427.31L366.51 426.14L366.99 424.97L367.49 423.8L368.01 422.63L368.56 421.47L369.13 420.32L369.72 419.17L370.33 418.02L370.82 417.15L371.32 416.3L371.82 415.49L372.33 414.7L372.84 413.94L373.36 413.2L373.89 412.49L374.41 411.8L374.95 411.14L375.48 410.5L376.02 409.89L376.56 409.3L377.11 408.73L377.65 408.19L378.2 407.67L378.75 407.17L379.3 406.69L379.85 406.23L380.4 405.79L380.95 405.37L381.5 404.97L382.04 404.59L382.59 404.23L383.13 403.88L383.67 403.56L384.21 403.25L384.74 402.95L385.27 402.68L385.79 402.42L386.31 402.17L386.83 401.94L387.34 401.72L387.84 401.52L388.34 401.33L388.83 401.16L389.31 400.99L389.78 400.84L390.25 400.7L390.71 400.57L391.16 400.46L391.62 400.35L392.08 400.24L392.57 400.14L393.06 400.05L393.57 399.96L394.09 399.89L394.62 399.82L395.17 399.76L395.73 399.71L396.3 399.67L396.88 399.64L397.47 399.62L398.08 399.61L398.7 399.62L399.32 399.64L399.96 399.67L400.61 399.72L401.27 399.78L401.95 399.86L402.63 399.96L403.32 400.07L404.02 400.2L404.74 400.35L405.46 400.52L406.19 400.7L406.94 400.91L407.69 401.13L408.45 401.38L409.22 401.65L410 401.94L410.79 402.25L411.59 402.59L412.39 402.95L413.21 403.34L414.03 403.75L414.86 404.19L415.7 404.66L416.55 405.15L417.4 405.67L418.26 406.21L418.84 406.59L419.41 406.97L419.97 407.36L420.53 407.75L421.08 408.14L421.62 408.53L422.16 408.93L422.69 409.33L423.21 409.74L423.73 410.14L424.25 410.55L424.76 410.96L425.26 411.38L425.76 411.79L426.25 412.21L426.73 412.62L427.21 413.04L427.69 413.46L428.15 413.88L428.62 414.31L429.08 414.73L429.53 415.15L429.98 415.57L430.42 416L430.86 416.42L431.29 416.84L431.71 417.26L432.14 417.68L432.55 418.1L432.97 418.52L433.37 418.94L433.78 419.36L434.17 419.77L434.57 420.18L434.95 420.6L435.34 421.01L435.72 421.41L436.09 421.82L436.46 422.22L436.83 422.62L437.12 422.94L437.42 423.26L437.71 423.58L438 423.91L438.3 424.23L438.59 424.55L438.88 424.87L439.18 425.2L439.47 425.52L439.76 425.84L440.05 426.17L440.35 426.49L440.64 426.81L440.93 427.14L441.22 427.46L441.51 427.78L441.8 428.11L442.09 428.43L442.39 428.75L442.68 429.07L442.97 429.4L443.26 429.72L443.54 430.04L443.83 430.37L444.12 430.69L444.41 431.01L444.7 431.33L444.99 431.65L445.27 431.97L445.56 432.29L445.85 432.61L446.13 432.94L446.42 433.25L446.71 433.57L446.99 433.89L447.28 434.21L447.56 434.53L447.84 434.85L448.41 435.48L448.99 436.13L449.57 436.78L450.16 437.43L450.74 438.08L451.32 438.74L451.91 439.39L452.49 440.05L453.08 440.7L453.67 441.36L454.26 442.01L454.85 442.67L455.44 443.32L456.03 443.98L456.62 444.63L457.22 445.29L457.81 445.95L458.41 446.6L459 447.26L459.6 447.91L460.2 448.57L460.8 449.22L461.4 449.87L462 450.52L462.6 451.18L463.2 451.83L463.8 452.47L464.41 453.12L465.01 453.77L465.61 454.42L466.22 455.06L466.83 455.7L467.43 456.34L468.04 456.98L468.65 457.62L469.26 458.26L469.87 458.89L470.48 459.52L471.09 460.15L471.7 460.78L472.32 461.41L473.4 462.49L474.48 463.55L475.57 464.57L476.66 465.56L477.75 466.52L478.84 467.44L479.94 468.34L481.04 469.2L482.14 470.04L483.25 470.84L484.36 471.61L485.48 472.35L486.59 473.06L487.72 473.73L488.85 474.38L489.98 475L491.12 475.58L492.26 476.14L493.41 476.66L494.57 477.16L495.73 477.62L496.89 478.05L498.07 478.46L499.25 478.83L500.43 479.18L501.63 479.49L502.83 479.77L504.03 480.03L505.25 480.25L506.47 480.45L507.7 480.61L508.94 480.75L510.18 480.86L511.44 480.94L512.7 480.99L513.98 481.01L515.26 481L516.55 480.96L517.85 480.89L519.16 480.8L519.18 480.79L519.21 480.79L519.24 480.79L519.26 480.79L519.29 480.79L519.32 480.78L519.34 480.78L519.37 480.78L519.39 480.78L519.42 480.78L519.45 480.78L519.47 480.77L519.5 480.77L519.53 480.77L519.55 480.77L519.58 480.77L519.6 480.77L519.63 480.77L519.66 480.76L519.68 480.76L519.71 480.76L519.74 480.76L519.76 480.76L519.79 480.76L519.81 480.76L519.84 480.76L519.87 480.76L519.89 480.76L519.92 480.76L519.95 480.76L519.97 480.76L520 480.75L520.03 480.75L520.05 480.75L520.08 480.75L520.1 480.75L520.13 480.75L520.16 480.75L520.18 480.75L520.22 480.75L609.21 480.79L609.27 480.79L609.33 480.78L609.39 480.77L609.46 480.76L609.53 480.74L609.6 480.73L609.68 480.71L609.75 480.69L609.83 480.67L609.91 480.64L610 480.62L610.08 480.59L610.16 480.56L610.25 480.52L610.34 480.48L610.43 480.44L610.52 480.4L610.61 480.35L610.71 480.3L610.8 480.24L610.89 480.18L610.99 480.12L611.09 480.05L611.18 479.98L611.28 479.9L611.38 479.82L611.48 479.74L611.57 479.65L611.67 479.55L611.77 479.45L611.87 479.34L611.97 479.23L612.06 479.12L612.16 478.99L612.26 478.86L612.35 478.73L612.45 478.59L612.54 478.44L612.64 478.29L612.73 478.13L612.84 477.93L612.95 477.71L613.05 477.49L613.15 477.26L613.25 477.02L613.34 476.77L613.43 476.52L613.51 476.26L613.59 475.98L613.66 475.71L613.73 475.42L613.79 475.13L613.84 474.83L613.89 474.52L613.94 474.2L613.97 473.88L614 473.56L614.02 473.22L614.03 472.89L614.03 472.54L614.03 472.19L614.02 471.83L614 471.47L613.97 471.11L613.93 470.74L613.88 470.36L613.82 469.98L613.75 469.59L613.67 469.21L613.58 468.81L613.48 468.42L613.36 468.02L613.24 467.61L613.1 467.2L612.96 466.79L612.79 466.38L612.62 465.96L612.44 465.55L612.24 465.12L612.02 464.7L611.6 463.89L611.17 463.09L610.73 462.29L610.29 461.49L609.83 460.69L609.38 459.91L608.91 459.12L608.44 458.34L607.96 457.56L607.48 456.79L607 456.02L606.51 455.26L606.01 454.5L605.51 453.75L605.01 453L604.5 452.25L603.99 451.51L603.48 450.77L602.96 450.04L602.44 449.32L601.92 448.6L601.4 447.88L600.87 447.17L600.35 446.46L599.82 445.76L599.29 445.07L598.76 444.38L598.23 443.69L597.7 443.01L597.18 442.34L596.65 441.67L596.12 441.01L595.6 440.35L595.07 439.7L594.55 439.05L594.03 438.41L593.51 437.78L592.99 437.15L592.48 436.53L591.97 435.91L591 434.75L590.02 433.6L589.03 432.45L588.04 431.31L587.05 430.18L586.05 429.05L585.04 427.92L584.03 426.8L583.01 425.69L581.98 424.58L580.96 423.47L579.92 422.37L578.88 421.27L577.84 420.17L576.79 419.08L575.74 417.99L574.68 416.91L573.62 415.82L572.55 414.74L571.48 413.66L570.4 412.58L569.32 411.51L568.24 410.43L567.15 409.36L566.05 408.29L564.95 407.21L563.85 406.14L562.75 405.07L561.64 404L560.52 402.93L559.4 401.85L558.28 400.78L557.16 399.71L556.03 398.63L554.89 397.55L553.76 396.47L552.62 395.39L551.47 394.31L550.33 393.22L549.18 392.13L548.77 391.75L548.36 391.36L547.96 390.97L547.55 390.59L547.14 390.2L546.73 389.81L546.32 389.42L545.91 389.04L545.5 388.65L545.09 388.26L544.68 387.86L544.26 387.47L543.85 387.08L543.44 386.69L543.03 386.3L542.61 385.9L542.2 385.51L541.79 385.12L541.37 384.72L540.96 384.33L540.54 383.93L540.13 383.54L539.72 383.14L539.3 382.74L538.89 382.35L538.48 381.95L538.06 381.55L537.65 381.16L537.23 380.76L536.82 380.36L536.41 379.96L536 379.56L535.58 379.17L535.17 378.77L534.76 378.37L534.35 377.97L533.94 377.57L533.52 377.17L533.11 376.77L532.7 376.37L531.01 374.69L529.4 373.03L527.87 371.38L526.42 369.76L525.04 368.14L523.75 366.54L522.54 364.96L521.41 363.38L520.35 361.81L519.38 360.26L518.49 358.71L517.67 357.16L516.93 355.62L516.28 354.08L515.7 352.55L515.2 351.01L514.78 349.47L514.44 347.93L514.17 346.39L513.99 344.85L513.88 343.29L513.85 341.73L513.89 340.16L514.02 338.58L514.22 336.99L514.5 335.39L514.86 333.77L515.3 332.14L515.81 330.48L516.4 328.82L517.06 327.13L517.8 325.42L518.62 323.69L519.52 321.94L520.49 320.16L521.54 318.35L522.66 316.52L523.86 314.66L525.13 312.77L526.49 310.85L527.14 309.94L527.79 309.03L528.44 308.12L529.1 307.21L529.75 306.3L530.41 305.39L531.07 304.48L531.73 303.57L532.4 302.66L533.06 301.76L533.72 300.85L534.39 299.94L535.05 299.04L535.72 298.14L536.39 297.23L537.06 296.33L537.73 295.43L538.4 294.53L539.07 293.63L539.74 292.73L540.41 291.83L541.08 290.94L541.75 290.04L542.42 289.15L543.09 288.25L543.76 287.36L544.44 286.47L545.11 285.58L545.78 284.69L546.45 283.8L547.12 282.91L547.79 282.03L548.46 281.15L549.13 280.26L549.79 279.38L550.46 278.5L551.13 277.62L551.79 276.74L552.46 275.87L553.12 274.99L553.7 274.23L554.27 273.47L554.85 272.71L555.43 271.95L556.01 271.19L556.58 270.42L557.16 269.66L557.75 268.89L558.33 268.12L558.91 267.35L559.49 266.58L560.07 265.81L560.65 265.04L561.24 264.27L561.82 263.5L562.4 262.72L562.98 261.95L563.57 261.17L564.15 260.4L564.73 259.62L565.31 258.84L565.89 258.07L566.47 257.29L567.06 256.51L567.63 255.73L568.21 254.95L568.79 254.17L569.37 253.4L569.95 252.62L570.52 251.84L571.1 251.06L571.67 250.28L572.25 249.5L572.82 248.72L573.39 247.94L573.96 247.16L574.53 246.38L575.09 245.6L575.66 244.82L576.22 244.04L577.95 241.65L579.03 240.15L580.11 238.65L581.19 237.16L582.26 235.68L583.32 234.19L584.38 232.71L585.43 231.22L586.48 229.74L587.52 228.26L588.55 226.78L589.57 225.3L590.58 223.82L591.59 222.34L592.58 220.86L593.56 219.38L594.54 217.89L595.5 216.4L596.45 214.91L597.38 213.42L598.3 211.92L599.21 210.42L600.11 208.91L600.98 207.4L601.85 205.88L602.7 204.36L603.53 202.83L604.34 201.29L605.14 199.75L605.91 198.19L606.67 196.64L607.41 195.07L608.13 193.49L608.83 191.91L609.51 190.31L610.17 188.71L610.81 187.09L611.42 185.46L612.01 183.83L612.57 182.18L613.12 180.52L613.22 180.19L613.32 179.87L613.41 179.56L613.5 179.25L613.58 178.96L613.66 178.67L613.73 178.39L613.8 178.12L613.87 177.86L613.93 177.61L613.99 177.36L614.04 177.12L614.09 176.89L614.13 176.67L614.18 176.45L614.22 176.24L614.25 176.04L614.29 175.85L614.32 175.66L614.34 175.48L614.37 175.31L614.39 175.14L614.41 174.98L614.42 174.83L614.44 174.68L614.45 174.54L614.46 174.41L614.47 174.28L614.48 174.16L614.48 174.05L614.49 173.94L614.49 173.83L614.49 173.74L614.49 173.65L614.49 173.56L614.48 173.48L614.48 173.41L614.48 173.34L614.47 173.27L614.47 173.22L614.42 173.19L614.36 173.15L614.3 173.12L614.24 173.08L614.17 173.04L614.09 173L614.01 172.96L613.93 172.92L613.83 172.87L613.73 172.82L613.63 172.78L613.52 172.73L613.4 172.67L613.27 172.62L613.14 172.57L613.01 172.51L612.86 172.46L612.71 172.4L612.55 172.35L612.38 172.29L612.21 172.23L612.03 172.17L611.84 172.11L611.64 172.05L611.43 171.99L611.22 171.93L611 171.87L610.77 171.8L610.53 171.74L610.28 171.68L610.02 171.62L609.76 171.55L609.48 171.49L609.2 171.43L608.9 171.37L608.6 171.31L608.29 171.25L607.96 171.19L607.63 171.13L607.29 171.07L607.15 171.04L607.01 171.02L606.87 171L606.72 170.98L606.58 170.96L606.43 170.94L606.28 170.93L606.13 170.91L605.98 170.89L605.82 170.88L605.67 170.87L605.51 170.85L605.35 170.84L605.19 170.83L605.03 170.82L604.87 170.81L604.71 170.8L604.55 170.79L604.38 170.79L604.22 170.78L604.05 170.77L603.89 170.77L603.72 170.76L603.55 170.75L603.38 170.75L603.21 170.75L603.04 170.74L602.87 170.74L602.7 170.74L602.53 170.73L602.36 170.73L602.19 170.73L602.02 170.73L601.85 170.73L601.68 170.73L601.51 170.73L601.34 170.73L601.17 170.73L600.99 170.73L600.82 170.73L503.44 170.64L503.35 170.64L503.32 170.64L503.29 170.64L503.27 170.64L503.25 170.64L503.22 170.64L503.21 170.64L502.78 170.63L502.37 170.63L501.97 170.63L501.58 170.64L501.21 170.66L500.84 170.68L500.48 170.71L500.14 170.74L499.8 170.79L499.48 170.84L499.16 170.9L498.85 170.97L498.55 171.05L498.26 171.14L497.97 171.24L497.7 171.35L497.43 171.47L497.17 171.61L496.91 171.75L496.66 171.91L496.42 172.08L496.18 172.26L495.94 172.46L495.71 172.67L495.49 172.89L495.27 173.13L495.05 173.39L494.84 173.66L494.63 173.94L494.42 174.25L494.22 174.57L494.02 174.9L493.82 175.26L493.62 175.63L493.42 176.02L493.22 176.43L493.02 176.86L492.83 177.3L492.63 177.77L492.43 178.26L492.03 179.26L491.63 180.26L491.23 181.28L490.82 182.3L490.41 183.33L489.99 184.36L489.57 185.4L489.15 186.45L488.72 187.5L488.29 188.56L487.86 189.62L487.42 190.69L486.98 191.77L486.53 192.85L486.08 193.93L485.63 195.02L485.17 196.11L484.71 197.21L484.24 198.31L483.77 199.41L483.3 200.51L482.82 201.62L482.34 202.73L481.86 203.85L481.37 204.96L480.88 206.08L480.38 207.2L479.88 208.32L479.37 209.44L478.86 210.56L478.35 211.68L477.83 212.8L477.31 213.93L476.79 215.05L476.26 216.17L475.72 217.29L475.19 218.41L474.64 219.53L474.1 220.65L473.55 221.77L472.48 223.93L471.4 226.12L470.3 228.32L469.18 230.53L468.05 232.76L466.9 235L465.74 237.25L464.55 239.51L463.35 241.78L462.13 244.06L460.89 246.35L459.63 248.65L458.35 250.95L457.04 253.26L455.72 255.58L454.38 257.9L453.01 260.22L451.62 262.54L450.21 264.86L448.77 267.19L447.31 269.51L445.83 271.83L444.32 274.15L442.79 276.47L441.23 278.78L439.64 281.09L438.03 283.39L436.39 285.69L434.72 287.98L433.03 290.26L431.31 292.53L429.56 294.79L427.77 297.04L425.96 299.27L424.12 301.5L422.25 303.71L420.35 305.91L418.41 308.09L416.45 310.25L414.45 312.4L413.43 313.48L412.99 313.95L412.54 314.44L412.06 314.94L411.57 315.45L411.06 315.97L410.53 316.51L409.98 317.05L409.41 317.6L408.82 318.15L408.22 318.7L407.59 319.25L406.95 319.8L406.28 320.34L405.6 320.88L404.9 321.41L404.18 321.92L403.44 322.43L402.68 322.92L401.9 323.39L401.11 323.84L400.29 324.27L399.45 324.68L398.6 325.06L397.72 325.41L396.82 325.74L395.91 326.03L394.97 326.29L394.02 326.51L393.05 326.7L392.05 326.85L391.04 326.95L390 327.01L388.95 327.03L387.87 327L386.78 326.91L385.67 326.78L384.53 326.59L383.38 326.35L382.2 326.04L381 325.68L380.99 325.68L380.96 325.66L380.94 325.66L380.91 325.65L380.88 325.64L380.85 325.63L380.82 325.62L380.81 325.61L380.77 325.6L380.75 325.59L380.72 325.58L380.69 325.57L380.66 325.56L380.63 325.55L380.62 325.55L380.59 325.54L380.57 325.53L379.27 325.01L378.01 324.43L376.8 323.79L375.63 323.09L374.51 322.35L373.44 321.55L372.4 320.7L371.41 319.81L370.46 318.88L369.55 317.91L368.68 316.9L367.85 315.86L367.06 314.79L366.3 313.69L365.59 312.57L364.91 311.42L364.26 310.26L363.66 309.08L363.08 307.88L362.55 306.68L362.04 305.46L361.57 304.25L361.13 303.03L360.72 301.81L360.34 300.59L360 299.38L359.68 298.18L359.39 296.99L359.13 295.82L358.9 294.66L358.69 293.53L358.51 292.41L358.36 291.33L358.23 290.27L358.12 289.24L358.04 288.25L357.99 287.3L357.95 286.38L357.93 285.51L357.94 284.69L357.86 173.35L357.81 173.05L357.77 172.74L357.72 172.44L357.68 172.12L357.63 171.81L357.58 171.5L357.52 171.18L357.47 170.86L357.42 170.54L357.36 170.22L357.3 169.9L357.24 169.58L357.18 169.26L357.12 168.94L357.05 168.62L356.98 168.3L356.92 167.99L356.84 167.67L356.77 167.36L356.7 167.05L356.62 166.75L356.54 166.45L356.46 166.15L356.38 165.86L356.29 165.58L356.21 165.3L356.12 165.02L356.03 164.75L355.93 164.49L355.84 164.23L355.74 163.98L355.64 163.74L355.54 163.51L355.43 163.28L355.32 163.07L355.21 162.86L355.1 162.66L354.99 162.47L354.87 162.3L354.75 162.13L354.72 162.09L354.69 162.05L354.65 162L354.61 161.95L354.56 161.9L354.52 161.84L354.46 161.78L354.4 161.72L354.34 161.65L354.27 161.59L354.19 161.52L354.11 161.44L354.02 161.37L353.92 161.29L353.81 161.21L353.7 161.13L353.58 161.05L353.45 160.96L353.31 160.88L353.16 160.79L353 160.7L352.83 160.61L352.65 160.52L352.46 160.43L352.26 160.33L352.04 160.24L351.82 160.14L351.58 160.05L351.33 159.95L351.07 159.85L350.79 159.75L350.5 159.66L350.19 159.56L349.87 159.46L349.54 159.36L349.19 159.27L348.83 159.17L348.45 159.07L348.05 158.98L347.64 158.88L247.79 158.88L247.49 158.89ZM103.12 243.72L103.61 243.77L104.09 243.85L104.57 243.94L105.05 244.04L105.52 244.17L105.99 244.32L106.45 244.48L106.91 244.66L107.36 244.85L107.8 245.07L108.23 245.3L108.66 245.55L109.07 245.81L109.48 246.1L109.88 246.4L110.26 246.71L110.64 247.04L111 247.39L111.35 247.75L111.68 248.13L112.01 248.52L112.32 248.93L112.61 249.36L112.89 249.8L113.15 250.25L114.6 252.87L116.05 255.47L117.51 258.05L118.96 260.62L120.41 263.17L121.87 265.71L123.33 268.23L124.79 270.74L126.25 273.23L127.71 275.71L129.17 278.18L130.64 280.63L132.11 283.07L133.58 285.5L135.05 287.91L136.53 290.3L138.01 292.69L139.49 295.06L140.97 297.42L142.46 299.77L143.94 302.1L145.44 304.42L146.93 306.73L148.43 309.03L149.93 311.32L151.44 313.59L152.95 315.85L154.46 318.1L155.98 320.35L157.5 322.57L159.02 324.79L160.55 327L162.08 329.2L163.62 331.39L165.16 333.56L166.71 335.73L168.26 337.89L169.82 340.04L171.38 342.17L172.94 344.3L173.25 344.73L173.53 345.17L173.79 345.61L174.04 346.07L174.26 346.52L174.46 346.99L174.65 347.46L174.81 347.93L174.96 348.41L175.08 348.89L175.19 349.38L175.28 349.86L175.34 350.35L175.39 350.84L175.42 351.33L175.43 351.82L175.43 352.31L175.4 352.8L175.35 353.29L175.29 353.77L175.21 354.26L175.11 354.74L174.99 355.21L174.85 355.68L174.7 356.15L174.52 356.61L174.33 357.06L174.12 357.51L173.9 357.95L173.65 358.38L173.39 358.8L173.11 359.21L172.81 359.62L172.5 360.01L172.17 360.4L171.82 360.77L171.45 361.13L171.07 361.48L170.67 361.81L170.26 362.13L170.08 362.25L169.91 362.38L169.74 362.49L169.56 362.61L169.38 362.72L169.21 362.83L169.03 362.93L168.85 363.04L168.67 363.13L168.48 363.23L168.3 363.32L168.12 363.41L167.93 363.5L167.74 363.58L167.56 363.66L167.37 363.74L167.18 363.81L166.99 363.88L166.8 363.94L166.61 364.01L166.42 364.07L166.22 364.13L166.03 364.18L165.84 364.23L165.64 364.28L165.45 364.32L165.25 364.37L165.06 364.4L164.86 364.44L164.67 364.47L164.47 364.5L164.27 364.53L164.08 364.55L163.88 364.57L163.68 364.59L163.48 364.6L163.29 364.61L163.09 364.62L162.89 364.62L162.7 364.62L162.4 364.62L162.11 364.61L161.82 364.59L161.53 364.57L161.23 364.54L160.94 364.5L160.66 364.46L160.37 364.41L160.08 364.35L159.79 364.29L159.51 364.22L159.23 364.15L158.95 364.06L158.67 363.97L158.39 363.88L158.11 363.78L157.84 363.67L157.57 363.55L157.3 363.43L157.03 363.3L156.77 363.17L156.51 363.03L156.25 362.88L156 362.73L155.74 362.57L155.5 362.41L155.25 362.24L155.01 362.06L154.77 361.87L154.54 361.68L154.31 361.49L154.08 361.28L153.86 361.08L153.64 360.86L153.43 360.64L153.22 360.41L153.01 360.18L152.81 359.94L152.62 359.7L152.43 359.45L150.81 357.25L149.2 355.04L147.6 352.83L146 350.6L144.4 348.37L142.81 346.12L141.23 343.86L139.65 341.6L138.07 339.32L136.5 337.04L134.93 334.74L133.37 332.43L131.81 330.11L130.25 327.78L128.7 325.43L127.15 323.08L125.61 320.71L124.07 318.33L122.53 315.94L121 313.54L119.46 311.12L117.94 308.69L116.41 306.25L114.89 303.79L113.37 301.32L111.85 298.84L110.34 296.35L108.83 293.84L107.32 291.31L105.81 288.78L104.31 286.22L102.8 283.66L101.3 281.08L99.8 278.48L98.31 275.87L96.81 273.25L95.32 270.61L93.82 267.95L92.33 265.28L90.84 262.59L90.59 262.12L90.37 261.65L90.17 261.18L89.98 260.7L89.82 260.21L89.68 259.73L89.56 259.24L89.46 258.75L89.38 258.25L89.32 257.76L89.27 257.27L89.25 256.77L89.25 256.28L89.26 255.79L89.3 255.3L89.35 254.81L89.42 254.32L89.51 253.84L89.62 253.37L89.75 252.89L89.89 252.43L90.05 251.96L90.23 251.51L90.43 251.06L90.64 250.62L90.88 250.18L91.12 249.76L91.39 249.34L91.67 248.94L91.97 248.54L92.29 248.16L92.62 247.78L92.96 247.42L93.33 247.07L93.71 246.73L94.1 246.41L94.51 246.1L94.93 245.81L95.37 245.53L95.83 245.26L96.29 245.02L96.76 244.79L97.24 244.59L97.72 244.41L98.2 244.25L98.69 244.11L99.18 243.98L99.67 243.88L100.16 243.8L100.66 243.74L101.15 243.7L101.64 243.67L102.14 243.67L102.63 243.69L103.12 243.72ZM77.81 193.93L78.72 194.1L79.63 194.33L80.51 194.63L81.37 194.99L82.2 195.42L83 195.9L83.77 196.45L84.49 197.05L85.18 197.71L85.81 198.43L86.4 199.2L86.93 200.03L87.41 200.9L87.67 201.43L87.94 201.97L88.2 202.5L88.46 203.03L88.73 203.56L88.99 204.09L89.25 204.62L89.52 205.15L89.78 205.68L90.05 206.21L90.31 206.75L90.58 207.28L90.84 207.81L91.11 208.34L91.38 208.87L91.64 209.4L91.91 209.93L92.18 210.46L92.44 210.99L92.71 211.52L92.98 212.04L93.39 212.95L93.73 213.87L94 214.81L94.19 215.75L94.3 216.69L94.35 217.63L94.33 218.57L94.23 219.5L94.08 220.42L93.85 221.33L93.56 222.21L93.2 223.08L92.79 223.91L92.31 224.72L91.77 225.49L91.17 226.22L90.52 226.91L89.81 227.55L89.04 228.15L88.22 228.69L87.35 229.17L87.08 229.3L86.82 229.43L86.55 229.54L86.28 229.65L86.01 229.76L85.74 229.85L85.47 229.94L85.2 230.03L84.92 230.1L84.65 230.18L84.37 230.24L84.1 230.3L83.82 230.35L83.55 230.4L83.27 230.44L82.99 230.47L82.72 230.5L82.44 230.52L82.16 230.53L81.89 230.54L81.61 230.55L80.95 230.53L80.29 230.48L79.63 230.39L78.98 230.27L78.34 230.12L77.71 229.93L77.09 229.72L76.48 229.47L75.88 229.19L75.3 228.88L74.73 228.54L74.18 228.17L73.65 227.76L73.14 227.33L72.65 226.88L72.18 226.39L71.73 225.87L71.31 225.33L70.92 224.76L70.56 224.17L70.22 223.55L69.95 223.01L69.68 222.47L69.41 221.93L69.13 221.39L68.86 220.85L68.59 220.31L68.32 219.77L68.05 219.23L67.78 218.69L67.51 218.15L67.24 217.61L66.97 217.07L66.7 216.53L66.43 215.98L66.16 215.44L65.89 214.9L65.62 214.36L65.35 213.82L65.09 213.28L64.82 212.74L64.55 212.19L64.14 211.28L63.81 210.36L63.56 209.42L63.38 208.48L63.27 207.54L63.23 206.59L63.26 205.65L63.36 204.72L63.53 203.81L63.76 202.9L64.06 202.02L64.43 201.16L64.85 200.33L65.34 199.53L65.88 198.76L66.48 198.04L67.15 197.35L67.86 196.71L68.63 196.13L69.46 195.59L70.33 195.12L71.24 194.71L72.17 194.38L73.11 194.13L74.05 193.94L74.99 193.83L75.94 193.8L76.88 193.83L77.81 193.93Z" id="h29aIWKypg"></path></defs><g><g><g><use xlink:href="#h29aIWKypg" opacity="1" fill="#64ffda" fill-opacity="1"></use><g><use xlink:href="#h29aIWKypg" opacity="1" fill-opacity="0" stroke="#000000" stroke-width="1" stroke-opacity="0"></use></g></g></g></g></svg>