<?xml version="1.0" encoding="UTF-8" standalone="no"?>
<!DOCTYPE svg PUBLIC "-//W3C//DTD SVG 1.1//EN" "http://www.w3.org/Graphics/SVG/1.1/DTD/svg11.dtd">
<svg version="1.1" xmlns="http://www.w3.org/2000/svg" xmlns:xlink="http://www.w3.org/1999/xlink" preserveAspectRatio="xMidYMid meet" viewBox="0 0 640 640" width="640" height="640"><defs><path d="M0 320C0 532.28 177.76 640 320 640C564.03 640 640 426.2 640 320C640 163.28 520.06 0 320 0C184.82 0 0 102.17 0 320ZM166.8 164.16C143.62 150.43 122.33 133.42 103.43 113.64C142.49 72.69 191.87 43.97 245.8 30.11C212.41 58.58 184.69 105.7 166.8 164.16ZM161.13 184.69C151.31 222.87 145.51 265.2 144.76 309.67C132.37 309.67 33.3 309.67 20.91 309.67C23.18 243.28 47.37 179.91 89.7 129.01C110.87 151.06 134.93 169.83 161.13 184.69ZM20.91 330.33C33.3 330.33 132.37 330.33 144.76 330.33C145.51 374.93 151.31 417.13 161.13 455.31C135.06 470.3 110.99 488.94 89.7 510.99C47.24 460.09 23.18 396.72 20.91 330.33ZM166.8 475.97C184.69 534.3 212.41 581.54 245.8 610.02C191.87 596.03 142.49 567.31 103.43 526.49C122.33 506.71 143.62 489.7 166.8 475.97ZM184.82 465.89C223.37 446.36 265.95 435.4 309.67 433.76C309.67 446.09 309.67 507.69 309.67 618.58C243.07 574.07 201.45 523.17 184.82 465.89ZM179.53 445.61C171.09 410.33 166.05 371.4 165.29 330.33C174.92 330.33 223.04 330.33 309.67 330.33L309.67 413.23C249.7 421.71 206.32 432.5 179.53 445.61ZM165.29 309.67C166.05 268.6 171.09 229.67 179.53 194.39C219.84 214.05 264.19 225.26 309.67 226.77C309.67 232.3 309.67 259.93 309.67 309.67C223.04 309.67 174.92 309.67 165.29 309.67ZM184.82 174.11C209.76 88.06 256 28.22 309.67 21.42C309.67 33.74 309.67 95.34 309.67 206.24C252.14 197.84 210.52 187.13 184.82 174.11ZM619.09 309.67C606.71 309.67 507.74 309.67 495.37 309.67C494.61 265.07 488.82 222.87 478.99 184.69C505.07 169.7 529.13 151.06 550.3 129.01C592.63 179.91 616.82 243.28 619.09 309.67ZM473.2 164.03C455.31 105.7 427.59 58.58 394.2 29.98C448.13 43.97 497.51 72.69 536.57 113.51C517.67 133.29 496.38 150.3 473.2 164.03ZM455.18 174.11C416.63 193.64 374.17 204.6 330.33 206.24C330.33 193.91 330.33 132.31 330.33 21.42C396.93 65.93 438.55 116.83 455.18 174.11ZM460.47 194.39C468.91 229.67 473.95 268.6 474.71 309.67C465.08 309.67 416.96 309.67 330.33 309.67L330.33 226.77C390.3 218.29 433.68 207.5 460.47 194.39ZM474.71 330.33C473.95 371.4 468.91 410.33 460.47 445.61C420.28 425.83 375.94 414.61 330.33 413.23C330.33 407.7 330.33 380.07 330.33 330.33C416.96 330.33 465.08 330.33 474.71 330.33ZM330.33 433.76C374.17 435.28 416.63 446.36 455.18 465.89C430.24 551.94 384 611.78 330.33 618.58C330.33 581.62 330.33 452.25 330.33 433.76ZM473.2 475.84C496.38 489.57 517.67 506.58 536.57 526.36C497.51 567.31 448.13 596.03 394.2 609.89C427.59 581.42 455.31 534.3 473.2 475.84ZM478.99 455.31C488.82 417.13 494.61 374.8 495.37 330.33C507.74 330.33 606.71 330.33 619.09 330.33C616.82 396.72 592.63 460.09 550.3 510.99C529.13 488.94 505.07 470.3 478.99 455.31Z" id="bbzuD1R0d"></path></defs><g><g><g><use xlink:href="#bbzuD1R0d" opacity="1" fill="#64ffda" fill-opacity="1"></use><g><use xlink:href="#bbzuD1R0d" opacity="1" fill-opacity="0" stroke="#000000" stroke-width="1" stroke-opacity="0"></use></g></g></g></g></svg>