<?xml version="1.0" encoding="UTF-8" standalone="no"?>
<!DOCTYPE svg PUBLIC "-//W3C//DTD SVG 1.1//EN" "http://www.w3.org/Graphics/SVG/1.1/DTD/svg11.dtd">
<svg version="1.1" xmlns="http://www.w3.org/2000/svg" xmlns:xlink="http://www.w3.org/1999/xlink" preserveAspectRatio="xMidYMid meet" viewBox="0 0 640 640" width="640" height="640"><defs><path d="M322.26 88.75C322.25 88.75 322.24 88.75 322.22 88.75C315.33 88.75 309.74 94.33 309.72 101.22C309.72 101.23 309.72 101.24 309.72 101.25C309.72 108.14 315.29 113.73 322.19 113.75C322.28 113.75 323 113.75 323.1 113.75C323.11 113.75 323.12 113.75 323.13 113.75C330.02 113.75 335.61 108.18 335.63 101.29C335.63 101.28 335.63 101.27 335.63 101.26C335.63 94.37 330.06 88.77 323.16 88.75C322.98 88.75 322.35 88.75 322.26 88.75Z" id="facAznA09"></path><path d="M563.56 102.25C531.84 93.61 443.41 90.43 374.81 89.28C367.95 89.19 362.22 94.67 362.1 101.57C361.99 108.47 367.49 114.16 374.39 114.28C469.34 115.87 534.19 120.16 557 126.37C579.16 132.39 596.62 150.16 602.56 172.75C614.85 219.36 615 319 615 320C615 321 614.85 420.64 602.56 467.25C596.62 489.84 579.16 507.61 556.99 513.63C511.18 526.1 321.91 526.25 320 526.25C318.09 526.25 128.82 526.1 83 513.63C60.84 507.61 43.38 489.84 37.44 467.25C25.15 420.64 25 321 25 320C25 319 25.15 219.35 37.44 172.75C43.38 150.16 60.84 132.39 83.01 126.37C106.32 120.02 173.08 115.7 271.01 114.19C277.91 114.09 283.42 108.41 283.31 101.5C283.21 94.6 277.51 89.14 270.62 89.2C199.91 90.28 108.82 93.43 76.45 102.25C45.68 110.6 21.47 135.18 13.26 166.38C0.15 216.11 0 315.78 0 320C0 324.22 0.15 423.88 13.26 473.61C21.47 504.82 45.68 529.39 76.44 537.75C125.45 551.1 312.08 551.25 320 551.25C327.92 551.25 514.55 551.1 563.55 537.75C594.32 529.4 618.53 504.82 626.74 473.62C639.85 423.88 640 324.22 640 320C640 315.78 639.85 216.11 626.74 166.39C618.53 135.18 594.32 110.6 563.56 102.25Z" id="b1kUU591T2"></path><path d="M60 299.4C60 309.59 60 391.09 60 401.28C60 408.18 65.6 413.78 72.5 413.78C79.4 413.78 85 408.18 85 401.28C85 391.09 85 309.59 85 299.4C85 292.5 79.4 286.9 72.5 286.9C65.6 286.9 60 292.5 60 299.4Z" id="c1F7TRtQl2"></path><path d="M60 242.53C60 242.54 60 242.66 60 242.67C60 249.58 65.6 255.17 72.5 255.17C79.4 255.17 85 249.58 85 242.67C85 242.66 85 242.54 85 242.53C85 235.62 79.4 230.03 72.5 230.03C65.6 230.03 60 235.62 60 242.53Z" id="bQnMf87jT"></path><path d="M266.38 221.09C262.52 218.85 257.74 218.84 253.87 221.07C249.99 223.3 247.61 227.43 247.61 231.9C247.61 249.9 247.61 393.9 247.61 411.9C247.61 416.37 249.99 420.5 253.87 422.73C255.8 423.85 257.95 424.4 260.11 424.4C262.27 424.4 264.44 423.84 266.38 422.71C281.88 413.71 405.88 341.71 421.38 332.71C425.24 330.47 427.61 326.36 427.61 321.9C427.61 317.45 425.24 313.33 421.38 311.09C390.38 293.09 281.88 230.09 266.38 221.09ZM272.61 253.61L390.21 321.9L272.61 390.19L272.61 253.61Z" id="cLOx82UIR"></path></defs><g><g><g><use xlink:href="#facAznA09" opacity="1" fill="#64ffda" fill-opacity="1"></use><g><use xlink:href="#facAznA09" opacity="1" fill-opacity="0" stroke="#000000" stroke-width="1" stroke-opacity="0"></use></g></g><g><use xlink:href="#b1kUU591T2" opacity="1" fill="#64ffda" fill-opacity="1"></use><g><use xlink:href="#b1kUU591T2" opacity="1" fill-opacity="0" stroke="#000000" stroke-width="1" stroke-opacity="0"></use></g></g><g><use xlink:href="#c1F7TRtQl2" opacity="1" fill="#64ffda" fill-opacity="1"></use><g><use xlink:href="#c1F7TRtQl2" opacity="1" fill-opacity="0" stroke="#000000" stroke-width="1" stroke-opacity="0"></use></g></g><g><use xlink:href="#bQnMf87jT" opacity="1" fill="#64ffda" fill-opacity="1"></use><g><use xlink:href="#bQnMf87jT" opacity="1" fill-opacity="0" stroke="#000000" stroke-width="1" stroke-opacity="0"></use></g></g><g><use xlink:href="#cLOx82UIR" opacity="1" fill="#64ffda" fill-opacity="1"></use><g><use xlink:href="#cLOx82UIR" opacity="1" fill-opacity="0" stroke="#000000" stroke-width="1" stroke-opacity="0"></use></g></g></g></g></svg>